<svg id="Layer_1_copy" data-name="Layer 1 copy" xmlns="http://www.w3.org/2000/svg" viewBox="0 0 265.46 95.73">
  <title>lines2</title>
  <g id="Layer_1" data-name="Layer 1">
    <g opacity="0.5">
      <g>
        <path class="line1" d="M265.21,33.3c-2.2-.94-4.76-2-7.7-3.24-10.27-4.09-17.85-4.94-24.82-2.89S218.63,34.66,211.05,44a169.53,169.53,0,0,0-10.19,14.22c-9.3,14-17.85,26.83-30.33,21.38C163,76.3,156.1,67.7,149.53,59.7c-5.86-7.24-11.73-14.48-17.67-17.63-5.74-3.07-14.55-5.28-21.76-2.56-4.4,1.62-8.68,7.24-12.84,12.52-3.18,4.09-6.12,7.92-8.56,9.12-3.72,1.78-7.84-5.88-12.16-13.8a97,97,0,0,0-6.48-10.82A20.73,20.73,0,0,0,66.27,32c-9.41-7.58-10.88-3.25-14.41,8.26C51.38,42,50.76,43.94,50,46,45.14,60.63,35.36,90.1,24.72,84.56,16.75,80.39,9.86,55,5.13,37.13,3.42,30.83,2,25.46.73,21.77l-.12.17C1.83,25.68,3.3,31.05,5,37.27c2.45,9.28,5.38,19.84,8.56,28.86,3.91,10.65,7.46,16.78,11,18.74C35.2,90.49,45.11,60.94,50,46.21c.73-2,1.34-4,1.83-5.71,3.68-11.73,4.91-15.63,14.32-8.14a23,23,0,0,1,3.71,4.41,90,90,0,0,1,6.36,10.81c4.28,8,8.56,15.67,12.35,13.89,2.44-1.2,5.5-5,8.68-9.12,4.16-5.28,8.44-10.9,12.71-12.51,7.22-2.73,15.9-.52,21.65,2.55,6,3.15,11.86,10.39,17.73,17.63,6.48,8.09,13.45,16.69,21,20,12.58,5.57,21.14-7.25,30.52-21.43a169.53,169.53,0,0,1,10.19-14.22c14.67-18.06,26.29-21.8,46.22-13.88,2.93,1.19,5.5,2.3,7.82,3.23V33.3Z" transform="translate(-0.12)"/>
        <path class="line1" d="M263.75,33c-2.2-.85-4.65-1.88-7.46-2.9C236.72,22.82,224.74,26.91,210,45A162.44,162.44,0,0,0,200,58.68c-9.54,14-18.09,26.74-30.69,21-7.58-3.41-14.43-12.09-20.91-20.18-5.75-7.21-11.58-14.54-17.58-17.73-5.74-3.07-14.42-5.37-21.76-2.64-4.4,1.7-9,7.58-13.08,12.77-3.06,4-6,7.67-8.32,8.94C84,62.84,80,55.56,75.7,48a92.75,92.75,0,0,0-6.48-10.56,25.78,25.78,0,0,0-3.79-4.35c-9.3-7.24-10.64-3-14.31,8.26-.49,1.71-1.22,3.58-1.83,5.62-2.57,7.33-6.36,18.31-10.76,26.49C33.39,83,28.53,86.45,24.1,84,16.38,79.71,9.86,56,4.86,37.39,3.18,31,1.71,25.55.37,21.77v.42c1.22,3.83,2.69,9.2,4.4,15.42C9.77,56.17,16.14,80,24,84.27c4.52,2.47,9.41-1,14.55-10.64,4.4-8.26,8.19-19.16,10.76-26.57.73-2.05,1.34-3.93,1.83-5.62,1.83-5.62,3.06-9.37,4.89-10.9s4.65-.77,9.17,2.81a24.22,24.22,0,0,1,3.69,4.21A112.53,112.53,0,0,1,75.34,48C79.62,55.7,83.66,63,87.45,61c2.44-1.28,5.25-5,8.31-8.95,4-5.11,8.56-11.07,13-12.69,7.34-2.72,15.9-.51,21.64,2.64,6,3.24,11.87,10.48,17.61,17.72,6.48,8.17,13.33,16.77,21,20.27,12.72,5.79,21.4-7.07,30.94-21.12,3.18-4.6,6.36-9.46,9.9-13.71,14.68-17.89,26.66-22,46.1-14.82,2.81,1,5.26,2,7.46,2.89.61.26,1.1.43,1.59.6v-.43A3.49,3.49,0,0,1,263.75,33Z" transform="translate(-0.12)"/>
        <path class="line1" d="M261.79,32.62c-2-.77-4.28-1.54-6.72-2.39-19.32-6.64-31.31-2.3-46.21,15.84-3.43,4.17-6.61,8.77-9.66,13.2C189.54,73.27,180.73,86,168,80c-7.59-3.58-14.43-12.27-20.79-20.44-5.75-7.33-11.5-14.65-17.49-18-5.74-3.15-14.3-5.45-21.76-2.64-4.53,1.7-9.29,7.75-13.33,12.94-2.93,3.84-5.75,7.41-8.07,8.77-3.72,2.25-7.72-4.73-11.72-12a86.34,86.34,0,0,0-6.48-10.22l-.12-.09a22.11,22.11,0,0,0-3.67-4c-9.17-6.81-10.51-2.73-14.18,8.18-.61,1.61-1.23,3.49-2,5.53h0c-2.55,7.15-6.35,17.8-10.75,25.74-5.14,9.11-9.9,12.35-14.31,9.88C15.77,79.28,9.54,56,4.65,37.9,3.06,32,1.71,26.9.49,23.16v.43c1.22,3.75,2.57,8.77,4.16,14.48,4.89,18.14,11.12,41.39,18.7,45.81,4.41,2.56,9.3-.68,14.43-9.88,4.4-7.92,8.19-18.56,10.76-25.71h0c.74-2,1.35-3.84,2-5.54,3.67-10.73,5-14.82,14.06-8.09a22.16,22.16,0,0,1,3.55,4l.12.09A87.34,87.34,0,0,1,74.71,49c4.16,7.32,8.19,14.3,12,12C89,59.6,91.85,56,94.78,52.19,98.78,47,103.59,41,108,39.25c7.33-2.73,15.89-.51,21.64,2.64,6,3.24,11.74,10.64,17.49,17.88C153.6,68,160.44,76.72,168,80.3c12.83,6,21.76-6.73,31.42-20.78,3.06-4.43,6.24-9,9.66-13.2,14.92-18,26.78-22.31,46-15.67,2.56.85,4.76,1.7,6.72,2.38,1.22.43,2.45.85,3.55,1.28v-.43C264.11,33.47,263,33,261.79,32.62Z" transform="translate(-0.12)"/>
        <path class="line1" d="M252.74,31.25c-1-.25-2.08-.42-3.18-.68-17.85-3.91-30.2,1.71-45.73,19.93-2.93,3.49-5.74,7.24-8.56,10.82C184.76,75.2,175.1,87.89,161.89,80.65c-7.58-4.18-14.18-13.12-20.54-21.55-5.5-7.49-11.13-15.07-17.12-18.65-7.09-4.34-15.16-5.36-21.64-2.89-5,1.95-10.27,8.6-14.67,14.3a56.89,56.89,0,0,1-6.61,7.67c-3.67,3.15-7.09-2.13-11-8.18a59.36,59.36,0,0,0-6.45-8.68l-.49-.52a20.37,20.37,0,0,0-3.06-2.81c-8.44-5.19-10-1.27-13.69,8.09-.62,1.54-1.23,3.24-2.08,5-5.38,12.77-15.16,35.77-24.7,29C13.08,76.64,7.58,55.77,3.18,39.51c-1-3.49-1.84-6.89-2.69-10v.43c.85,3,1.71,6.3,2.69,9.7C7.58,56,13.18,77,19.93,81.71c9.66,6.9,19.44-16.18,24.94-29,.74-1.78,1.47-3.57,2.08-5.11,3.67-9.28,5.26-13.2,13.58-8a19.35,19.35,0,0,1,3,2.72l.49.52a59.56,59.56,0,0,1,6.48,8.68c4,6,7.46,11.41,11.25,8.18A62.66,62.66,0,0,0,88.35,52c4.51-5.7,9.71-12.35,14.73-14.26,6.48-2.47,14.43-1.45,21.52,2.89,5.87,3.58,11.49,11.16,17,18.57,6.24,8.43,13,17.45,20.55,21.63,13.45,7.32,23.11-5.37,33.62-19.42,2.69-3.58,5.5-7.32,8.44-10.73C219.62,32.66,232,27,249.7,31c1.1.26,2.2.51,3.17.68,5.14,1.11,9.05,2,12.48,2.39v-.43A109.75,109.75,0,0,1,252.74,31.25Z" transform="translate(-0.12)"/>
        <path class="line1" d="M243.57,30.91c-16.26-1-29,6-45.24,24.36-2.32,2.64-4.52,5.36-6.73,7.92-11.61,14-22.25,26.83-36.31,18-7.58-4.77-14.06-14-20.18-22.73-5.62-8-10.76-15.5-16.5-19.34-7-4.68-14.8-5.79-21.52-3.15-6,2.39-12.23,10.56-17,17-1.47,2-2.93,3.83-4.16,5.28-3.67,4.26-6.6.51-10.39-4.17a38.42,38.42,0,0,0-6.36-6.82l-.73-.49a17.68,17.68,0,0,0-2.82-1.87c-7.58-3.49-9.41.43-13.08,8.09-.61,1.36-1.47,3-2.2,4.6C34.86,68.21,25.07,87.2,16,79.37c-5.87-5-10.52-22.82-14.55-38.15C1.1,39.86.73,38.58.37,37.3v.47c.36,1.19.61,2.38,1,3.57,4,15.33,8.81,33.13,14.68,38.24,9.17,7.92,19.07-11.16,24.45-21.8.86-1.62,1.59-3.24,2.2-4.6,3.79-7.83,5.51-11.41,13-8a24.17,24.17,0,0,1,2.82,1.87l.73.51a34.25,34.25,0,0,1,6.36,6.81c3.79,4.77,6.85,8.52,10.51,4.18,1.23-1.45,2.57-3.33,4.16-5.28,4.77-6.39,11-14.57,17-16.87,6.72-2.64,14.55-1.53,21.4,3.15,5.74,3.84,10.88,11.33,16.5,19.34,6.12,8.77,12.48,18,20.18,22.82,14.18,8.94,24.82-3.92,36.56-18,2.2-2.64,4.4-5.37,6.72-7.92,16.14-18.31,28.86-25.3,45-24.28,9.42.6,15.29.86,21.64-.34V30.7C258.86,31.77,253,31.51,243.57,30.91Z" transform="translate(-0.12)"/>
        <path class="line1" d="M243,30.91c-16.1-.76-28.73,6.39-45.1,24.79-2.2,2.55-4.4,5.1-6.48,7.66-11.74,14.14-22.5,26.91-36.56,17.88-7.58-4.85-14.06-14.13-20-22.82-5.63-8.09-10.76-15.5-16.51-19.42-6.85-4.77-14.8-5.87-21.52-3.23C90.61,38.15,84.25,46.5,79.36,53.06,78,54.93,76.67,56.63,75.57,58c-3.71,4.43-6.61.78-10.28-3.83a35.67,35.67,0,0,0-6.35-6.64L58.2,47a11.78,11.78,0,0,0-2.69-1.79c-7.46-3.32-9.41.51-13.08,8-.57,1.37-1.47,2.9-2.32,4.55-5.51,10.36-15.25,29-24.34,21C10,73.66,5.38,56.12,1.34,41.05,1.1,39.94.73,38.83.49,37.73v.42c.24.94.49,2,.73,3C5.22,56.31,9.9,73.85,15.65,79c9.17,8.09,19-10.64,24.46-21.12.85-1.61,1.58-3.15,2.32-4.51,3.67-7.49,5.5-11.24,13-7.92a11.78,11.78,0,0,1,2.69,1.79l.73.51a35.41,35.41,0,0,1,6.36,6.64c3.79,4.6,6.73,8.26,10.4,3.83,1.1-1.36,2.44-3.06,3.79-4.93C84.29,46.69,90.52,38.34,96.64,36c6.72-2.64,14.55-1.54,21.39,3.23,5.75,3.92,10.89,11.33,16.39,19.42,6.11,8.77,12.47,18,20.18,22.91,14.18,9,24.94-3.75,36.8-18,2.08-2.47,4.28-5.11,6.48-7.66,16.26-18.4,29-25.55,45-24.7,9.54.51,15.53.68,22.25-.85v-.43C258.49,31.51,252.62,31.34,243,30.91Z" transform="translate(-0.12)"/>
        <path class="line1" d="M234.28,31.42C218.63,34.66,206,45.65,189.86,62.77l-2.56,2.81c-13.94,15-26.54,28.53-42.07,16.7-7.7-5.8-13.81-15.5-19.56-24.7-5.26-8.35-10.15-16.1-15.78-20.44-6.6-5.19-14.3-6.47-21.39-3.58-8.9,3.57-17.7,17.11-20.88,22.65-3.67,6.13-6,4.34-9.42,1.7a20.87,20.87,0,0,0-6.11-3.66L51,53.77a3.65,3.65,0,0,0-2.2-.6c-7.46,1.79-9.3,4.34-14.68,11.58l-.12.17c-7.7,10.39-16.26,19.42-23.84,10.56C6.36,71,3.3,60.77.37,49.9v.43C3.18,61.15,6.24,71.19,10,75.62c3.54,4.09,7.45,4.69,12.22,1.71,4.28-2.73,8.44-7.92,11.62-12.27l.12-.17c5.38-7.24,7.22-9.71,14.55-11.49a3.61,3.61,0,0,1,2.2.51l1.1.51A22.76,22.76,0,0,1,58,58.08c3.54,2.69,5.9,4.51,9.54-1.79,3.3-5.53,12-19,20.9-22.57,7.1-2.81,14.68-1.61,21.28,3.58,5.62,4.34,10.39,12.09,15.65,20.35,5.75,9.2,12,18.91,19.57,24.7,15.65,11.92,28.36-1.7,42.3-16.78.86-.93,1.71-1.87,2.57-2.72,16-17.12,28.61-28.1,44.26-31.26A147.49,147.49,0,0,0,265,22.14v-.37A128.68,128.68,0,0,1,234.28,31.42Z" transform="translate(-0.12)"/>
        <path d="M233.67,31.51c-15.41,3.41-28.13,14.56-44.27,31.76-.73.77-1.46,1.62-2.2,2.39-14.06,15.07-26.78,28.7-42.55,16.69-7.7-5.88-13.79-15.58-19.56-24.78-5.23-8.35-10.15-16.1-15.65-20.53-6.58-5.27-14.19-6.47-21.4-3.66C78.62,37.13,69.57,51.77,67.13,56c-3.67,6.3-6,4.59-9.42,2a22.21,22.21,0,0,0-6.11-3.49,6.12,6.12,0,0,1-1.1-.43,3.48,3.48,0,0,0-2.2-.51C41,55.61,39.13,58,33.63,65.19l-.13.09c-7.21,9.54-16.14,18.9-23.72,9.88-3.67-4.35-6.6-14-9.41-24.53v.43C3.06,61.49,6,71,9.66,75.37c3.55,4.17,7.46,4.85,12.23,2,4.28-2.55,8.43-7.66,11.61-11.92l.13-.09c5.38-7.11,7.23-9.59,14.55-11.54a3.68,3.68,0,0,1,2.2.51,6.12,6.12,0,0,0,1.1.43,20.41,20.41,0,0,1,6.11,3.49c3.55,2.55,5.87,4.26,9.54-2.13C69.57,51.86,78.62,37.3,88,33.55c7.09-2.81,14.67-1.61,21.27,3.58,5.55,4.34,10.4,12.09,15.65,20.44,5.75,9.2,11.87,19,19.57,24.87,15.77,12.09,28.61-1.54,42.8-16.7.73-.76,1.46-1.61,2.2-2.38,16.14-17.2,28.85-28.27,44.14-31.68a162.72,162.72,0,0,0,31.42-10v-.43A152.17,152.17,0,0,1,233.67,31.51Z" transform="translate(-0.12)"/>
        <path d="M233.18,31.51c-16.63,4-30.2,17.29-44.27,32.19a18,18,0,0,1-2,2C172.6,81,159.76,94.57,144,82.4c-7.7-6-13.82-15.67-19.56-24.87-5.26-8.35-10-16.1-15.66-20.53-6.6-5.28-14.18-6.55-21.39-3.66C77.77,37.22,69,51.77,66.52,56c-3.66,6.38-5.87,4.73-9.3,2.38a19.11,19.11,0,0,0-6.11-3.24,5.42,5.42,0,0,1-1.1-.42,3,3,0,0,0-2.2-.43c-7.22,2-9.17,4.52-14.67,11.58V66C25.92,75.28,17,84.31,9.41,75.2c-3.55-4.26-6.35-13.43-9-23.51v.43c2.56,9.88,5.5,19,8.92,23.25,7.58,9.28,16.63.17,23.85-9.2v-.09c5.5-7.06,7.33-9.45,14.55-11.58a3.59,3.59,0,0,1,2.2.43,5.42,5.42,0,0,0,1.1.42,20.17,20.17,0,0,1,6,3.24c3.42,2.47,5.75,4.09,9.54-2.47C69,51.86,77.78,37.39,87.44,33.55c7.09-2.81,14.67-1.61,21.27,3.67,5.5,4.42,10.4,12.17,15.65,20.52,5.75,9.2,11.86,19,19.57,25,15.89,12.35,28.85-1.45,43.16-16.69a18,18,0,0,1,2-2c14.06-14.91,27.51-28.11,44.14-32.11a185.69,185.69,0,0,0,32-10.65v-.52A182.87,182.87,0,0,1,233.18,31.51Z" transform="translate(-0.12)"/>
        <path d="M255.55,20.86c-8.8,3.92-16.26,7.16-26.28,10.9-15.41,5.8-28.86,19.59-43.53,34.84l-.37.34C170.86,82,156.63,96.77,139.86,82.86c-7.7-6.39-13.69-16.35-19.32-25.72-5.13-8.51-9.78-16.35-15.28-21-4.65-3.92-12-7.58-21.28-3.83-8.19,3.32-16.38,14-20.78,22.82-3.18,6.39-5.14,5.53-7.83,4.17-1.83-.85-4-2-7.09-1.11A2.49,2.49,0,0,1,46.69,58a2,2,0,0,0-1.59-.08c-6.46,2.83-8.91,5.33-14,10.83l-.37.43c-6.6,7-15.9,14.73-23.48,4.34C4.77,70.13,2.69,64.17.73,57.27v.5c2,6.73,4,12.6,6.48,16,7.58,10.47,17,2.72,23.6-4.34l.37-.43c5.26-5.54,7.58-8.09,14.06-10.9a2.62,2.62,0,0,1,1.59.08,2.56,2.56,0,0,0,1.59.18c3.06-.77,5.26.25,7.09,1.1,2.69,1.36,4.77,2.3,8-4.17C68,46.41,76.05,35.77,84.25,32.53c9.29-3.76,16.61-.08,21.15,3.83,5.5,4.6,10.15,12.44,15.29,21,5.62,9.46,11.61,19.42,19.31,25.81,16.88,14,31.18-.85,45.74-15.93l.36-.34c14.68-15.16,28-28.95,43.41-34.74,10-3.75,17.49-7,26.41-10.91,3.06-1.36,6.24-2.72,9.66-4.17v-.42C261.67,18.14,258.61,19.5,255.55,20.86Z" transform="translate(-0.12)"/>
        <path d="M251.86,21.89c-7.46,3.32-14.43,6.38-23.24,9.87-15,5.88-28.12,19.34-42.43,34.24l-1.33,1.36C170.31,82.36,156.12,97,139.25,83c-7.7-6.39-13.69-16.44-19.32-25.89-5-8.52-9.78-16.44-15.28-21-4.53-3.91-12-7.66-21.28-3.83-8.31,3.41-16.38,14-20.79,22.91-3.17,6.56-5,5.7-7.82,4.43a9.63,9.63,0,0,0-7.09-.94,2.63,2.63,0,0,1-1.59-.17,2.48,2.48,0,0,0-1.59-.08c-6.22,2.77-8.79,5.39-13.8,10.6l-.49.6c-6.6,6.81-15.89,14.19-23.48,3.66C4.4,70,2.44,64.47.61,58v.43c1.83,6.3,3.79,11.75,6.11,15,7.59,10.64,17,3.15,23.6-3.66l.49-.6c5-5.19,7.58-7.83,13.82-10.64a2,2,0,0,1,1.59.08,3.39,3.39,0,0,0,1.64.17,9.44,9.44,0,0,1,7,.94c2.69,1.19,4.65,2.13,8-4.52,4.32-8.86,12.39-19.42,20.7-22.83,9.3-3.75,16.63-.08,21.16,3.83,5.5,4.58,10.19,12.52,15.19,21,5.62,9.45,11.62,19.5,19.32,25.89,7.34,6.13,14.92,7.32,23.11,3.4C169.63,83,176.84,76,185,67.52l1.35-1.36C200.81,51.34,213.77,37.89,228.81,32c8.8-3.41,15.77-6.56,23.23-9.88,4.16-1.79,8.44-3.75,13.33-5.79v-.43Z" transform="translate(-0.12)"/>
        <path d="M248.34,23c-6.6,3-12.72,5.71-20.3,8.86-14.67,6-27.39,19.16-41.45,33.64l-2.32,2.38C170.45,82.1,155.53,97.34,138.54,83c-7.71-6.47-13.58-16.52-19.2-26-5-8.52-9.78-16.44-15.16-21.12-4.53-3.89-11.86-7.64-21.32-3.8-8.44,3.4-16.51,14-20.78,22.9-3.22,6.65-5.1,5.88-7.79,4.76a9.56,9.56,0,0,0-7-.68A3.42,3.42,0,0,1,45.7,59a2,2,0,0,0-1.59,0c-6.11,2.81-8.56,5.36-13.57,10.3l-.86.85c-6.57,6.61-15.82,13.72-23.32,3-2.2-3.06-4-8.26-5.75-14.22v.43c1.71,5.87,3.55,10.9,5.75,14,7.58,10.82,16.87,3.58,23.47-3l.86-.85c4.89-4.94,7.46-7.49,13.45-10.3a2.41,2.41,0,0,1,1.59,0,3.42,3.42,0,0,0,1.59.08c3.06-.93,5.14,0,7,.68,2.81,1.2,4.65,2,8-4.85C66.6,46.26,74.67,35.7,83.1,32.3c9.3-3.84,16.63-.09,21.16,3.83,5.5,4.68,10.15,12.52,15.16,21,5.62,9.46,11.49,19.5,19.32,26.06,7.34,6.22,14.92,7.5,23.23,3.66,7.46-3.49,14.67-10.47,22.74-18.82L187,65.65c14.06-14.48,26.78-27.51,41.33-33.55,7.58-3.16,13.69-5.88,20.29-8.86,5.14-2.3,10.52-4.77,16.88-7.41V15.4C258.86,18.22,253.48,20.61,248.34,23Z" transform="translate(-0.12)"/>
        <path d="M244.92,23.93c-5.51,2.55-11,5.11-17.49,7.92-14.3,6.13-26.65,18.91-40.35,33-1.1,1.11-2.2,2.3-3.3,3.41-16.63,17-30,28.27-45.85,14.73-7.71-6.56-13.58-16.6-19.2-26.06-5-8.51-9.66-16.43-15.16-21.2-6.48-5.62-13.82-6.9-21.28-3.92-8.43,3.53-16.51,14.09-20.79,23-3.3,6.81-5.13,6.13-7.82,5.11a9.69,9.69,0,0,0-7-.51,2.55,2.55,0,0,1-1.59-.09,2.54,2.54,0,0,0-1.59,0c-5.87,2.9-8.44,5.45-13.21,10-.36.34-.73.76-1.1,1.1-6.57,6.39-15.86,13.16-23.33,2.26-2.08-3-3.79-7.66-5.38-13.2v.43c1.6,5.36,3.31,10.05,5.38,12.9C9,77.37,13,79.24,17.35,78.22c3.43-.76,7.34-3.32,12-7.75a11.42,11.42,0,0,1,1.1-1.1c4.64-4.6,7.33-7.16,13.2-10a2.09,2.09,0,0,1,1.59,0,3.29,3.29,0,0,0,1.59.09,9.34,9.34,0,0,1,6.85.51c2.81,1,4.64,1.7,8-5.2C65.91,46,73.86,35.43,82.29,32c7.34-3,14.67-1.7,21.15,3.92,5.38,4.68,10.15,12.6,15.17,21.12,5.62,9.54,11.49,19.58,19.19,26.14,7.34,6.3,14.92,7.58,23.24,3.92,7.58-3.41,15-10.65,22.86-18.65,1.1-1.11,2.2-2.3,3.3-3.41,13.7-14.13,26.17-26.82,40.35-32.95,6.48-2.81,12-5.37,17.49-7.84,6.36-2.89,12.47-5.79,20.17-9v-.42C257.51,18.14,251.28,21,244.92,23.93Z" transform="translate(-0.12)"/>
        <path d="M265.09,9.77c-16.38,6.5-27.23,12.88-42.55,22.34-11,6.81-21.4,17.62-32,28.69-3.66,3.84-7.45,7.67-11.25,11.5C164.62,86.86,149.58,99,132.71,83.54c-7.71-7.07-13.45-17.37-19-27.16-4.9-8.69-9.42-16.78-14.8-21.72-6.36-6-13.57-7.24-21.15-4.09C69.57,34,61.5,43.09,57.1,53.77c-3.91,9.28-5.26,9.19-8.92,9.11a23.32,23.32,0,0,0-5.14.34c-1,.17-2.08.43-3.06.68-3.66,1-6.11,3.49-8.68,6.05A38.36,38.36,0,0,1,26,74.55c-9.9,7-17.6,5.53-23.11-3.67A21.64,21.64,0,0,1,.73,66v.34a42.44,42.44,0,0,0,2.2,4.68C8.44,80.31,16.14,81.77,26,74.77a46,46,0,0,0,5.38-4.68c2.57-2.56,5.14-5,8.69-6a24.42,24.42,0,0,1,3-.68,30.48,30.48,0,0,1,5.14-.34c3.79.08,5.13.17,9.05-9.2C61.75,43.26,69.86,34.15,78,30.77c7.58-3.15,14.67-1.79,21,4.09,5.38,4.94,9.78,13,14.68,21.72,5.5,9.71,11.24,20,19,27.16,7.46,6.82,15.16,8.77,23.47,5.88s15.9-9.79,23.36-17.12c3.79-3.75,7.58-7.66,11.25-11.49,10.64-11.08,21-21.89,32-28.62,15.28-9.45,26.16-15.84,42.55-22.31h.12V9.65A.77.77,0,0,1,265.09,9.77Z" transform="translate(-0.12)"/>
        <path d="M264.48,9.45c-16.87,6.56-28,13.37-42.55,22.74C211.29,39,201.14,49.65,190.75,60.46c-3.89,4.09-7.95,8.31-12,12.31-14.68,14.48-29.72,26.57-46.71,10.9-7.71-7.15-13.45-17.45-18.83-27.25-4.89-8.68-9.3-16.78-14.68-21.8-6.36-6-13.57-7.32-21.15-4.17C69.21,33.85,61.14,43,56.74,53.61c-3.92,9.45-5.26,9.45-9.05,9.54a19.14,19.14,0,0,0-5,.51,23.56,23.56,0,0,0-3,.77c-3.55,1.1-6,3.4-8.56,6a40.33,40.33,0,0,1-5.51,4.68c-9.9,6.64-17.6,5-23-4.34-.61-1.19-1.35-2.56-2-4.09V67c.6,1.45,1.24,2.75,1.82,3.92C8,80.39,15.65,82,25.55,75.37a47.39,47.39,0,0,0,5.51-4.69c2.57-2.47,5-4.85,8.43-5.87A24.46,24.46,0,0,1,42.55,64a24,24,0,0,1,5-.42c3.8-.09,5.14-.09,9-9.63C61,43.43,69,34.32,77.16,30.91c7.58-3.15,14.79-1.79,21,4.18,5.38,4.94,9.78,13,14.67,21.71,5.38,9.8,11.13,20.1,19,27.34,7.46,6.9,15.16,8.94,23.48,6.13s16.38-10,23.35-17c4-4,8.07-8.18,12-12.35C201,50.07,211.17,39.51,221.86,32.7c14.55-9.28,25.67-16.09,42.55-22.65.24-.09.37-.17.61-.26V9.37C265,9.28,264.73,9.37,264.48,9.45Z" transform="translate(-0.12)"/>
        <path d="M264,9.11c-17.24,6.66-29.22,14.22-42.67,23.08C210.92,39,201,49.39,191,60c-4.15,4.43-8.43,8.86-12.84,13.2C164.09,87,148.44,99.64,131.32,83.71c-7.7-7.24-13.45-17.54-18.83-27.33-4.89-8.78-9.29-16.87-14.63-21.89-6.36-6-13.57-7.32-21.15-4.17C68.23,33.77,60.4,42.77,56,53.48c-3.91,9.62-5.26,9.71-9,9.88a32.35,32.35,0,0,0-5,.6c-1,.25-2,.51-3.06.85-3.3,1.1-5.74,3.4-8.31,5.79a42.5,42.5,0,0,1-5.77,4.77c-9.9,6.38-17.61,4.51-23-5A32.53,32.53,0,0,1,.27,67.14v.34c.49,1.1,1,2.21,1.47,3.06C7.24,80.17,15,82,24.85,75.65a41,41,0,0,0,5.75-4.77c2.57-2.38,4.89-4.68,8.19-5.79a25,25,0,0,1,3.07-.88,24.75,24.75,0,0,1,5-.59c3.91-.18,5.14-.26,9.17-10C60.43,42.89,68.26,34,76.57,30.54c7.58-3.15,14.8-1.79,21,4.18,5.25,5,9.78,13.11,14.55,21.8,5.38,9.79,11.12,20.18,19,27.42,7.46,6.9,15.16,9.11,23.6,6.3s16.5-10,23.47-16.86c4.41-4.26,8.69-8.77,12.84-13.2,10.15-10.56,19.93-21,30.33-27.76,13.45-8.86,25.43-16.35,42.55-23,.37-.17.73-.25,1.22-.42V8.57A2.32,2.32,0,0,1,264,9.11Z" transform="translate(-0.12)"/>
        <path d="M255.43,3.83c-15.16,5.28-29.1,14.82-42.79,28.87C206.77,38.77,201,45.77,194.91,53c-8.07,9.71-16.27,19.42-24.7,27.25C150.64,98.36,136,99.3,122,84.65c-7.83-8.18-13.21-19-18.46-29.3C99,46.41,94.86,38.07,89.63,32.62c-6.24-6.56-13-8-21-4.52C61.78,31,53,37.39,48.21,51.69,43.68,65.32,43.56,65.4,37.81,69c-.73.51-1.59,1-2.57,1.62a30.53,30.53,0,0,0-3,2.17c-1.35,1.1-2.57,2.21-3.79,3.4-3.06,2.9-5.87,5.62-9.78,6.39C11.37,84,5,81,.12,74.22v.25C5,81.28,11.37,84.26,18.71,82.82c3.79-.77,6.72-3.5,9.78-6.39,1.22-1.11,2.44-2.3,3.79-3.41a22.57,22.57,0,0,1,2.93-2.13c1-.59,1.84-1.19,2.57-1.61,5.75-3.58,5.87-3.67,10.52-17.38,4.77-14.26,13.56-20.56,20.42-23.46,8.07-3.4,14.67-2,20.91,4.52,5.13,5.45,9.29,13.71,13.81,22.65,5.14,10.3,10.64,21.12,18.47,29.3,7.58,7.92,15.4,11.24,24,9.79,7.22-1.19,15.17-5.79,24.34-14.22,8.43-7.84,16.5-17.55,24.7-27.25C201.06,46,206.81,39,212.68,33c13.57-14,27.51-23.59,42.67-28.79a78.87,78.87,0,0,1,9.78-2.64V1.19A81.28,81.28,0,0,0,255.43,3.83Z" transform="translate(-0.12)"/>
        <path d="M254.94,3.58c-15.16,5.19-29.08,14.9-42.79,29.29-5.51,5.88-11,12.61-16.88,19.5-8.41,10.14-16.75,20.4-25.41,28.4-12.35,11.33-30.08,23.34-48.3,4.09-7.82-8.26-13.2-19.08-18.46-29.38-4.53-8.94-8.68-17.29-13.82-22.74-6.24-6.64-13-8-21-4.6C61.38,31,52.46,37.47,47.86,51.69v.17c-4.53,13.8-4.53,13.8-10.52,17.72-.73.42-1.46.93-2.32,1.53s-1.83,1.28-2.93,2.21-2.33,2.13-3.43,3.15c-3.18,3.07-6.11,5.88-10,6.56-7.1,1.28-13.33-1.7-18.1-8.34v.25c4.77,6.64,11,9.62,18.22,8.35,3.91-.68,6.84-3.49,10-6.56,1.1-1,2.21-2.13,3.43-3.15s2.08-1.62,2.93-2.22,1.59-1.1,2.33-1.53c6-3.92,6-3.92,10.63-17.8v-.17c4.6-14.09,13.53-20.52,20.37-23.42,8.07-3.4,14.68-2,20.91,4.52,5.14,5.45,9.3,13.71,13.82,22.65,5.14,10.3,10.64,21.21,18.46,29.47,7.58,8,15.41,11.32,24.09,10,7.34-1.1,15.29-5.62,24.46-14,8.68-8,17.12-18.22,25.55-28.36,5.75-7,11.37-13.71,16.88-19.5,13.57-14.3,27.51-24,42.67-29.21a93.53,93.53,0,0,1,10.27-2.72V.86A56.51,56.51,0,0,0,254.94,3.58Z" transform="translate(-0.12)"/>
        <path d="M254.33,3.24c-15,5.11-29.47,15.24-42.79,29.63-5.26,5.71-10.64,12.18-16.14,19-8.56,10.56-17.25,21.12-26.17,29.3-19.32,17.71-34.48,18.48-48.3,3.75-7.83-8.36-13.21-19.15-18.34-29.48-4.53-8.94-8.68-17.29-13.82-22.82-6.23-6.65-13-8-21-4.6C57.86,32.28,51,40.2,47.32,51.61l-.24.93C42.8,65.91,42.8,65.91,36.56,70.09c-.61.42-1.35.85-2.08,1.45a34,34,0,0,0-2.93,2.29q-1.61,1.42-3.06,3C25.31,80,22.25,83,18.22,83.55c-7,1-13.09-2-17.73-8.43v.26a23.32,23.32,0,0,0,5.26,5.28,16.66,16.66,0,0,0,12.59,3.11c4-.6,7.09-3.58,10.39-6.73,1-.94,2.08-2,3.06-3a24,24,0,0,1,2.94-2.27l2.07-1.45C43,66.15,43,66.15,47.32,52.69l.24-.92c3.67-11.32,10.4-19.24,20.3-23.5,8.07-3.4,14.68-2,20.91,4.6,5.14,5.45,9.29,13.8,13.7,22.74,5.13,10.3,10.63,21.21,18.46,29.55,7.58,8.09,15.41,11.5,24.09,10.22,7.33-1,15.28-5.54,24.45-13.88,8.93-8.18,17.61-18.82,26.17-29.3,5.5-6.72,10.88-13.28,16.14-19,13.33-14.38,27.63-24.43,42.67-29.54A67.56,67.56,0,0,1,265.21.94V.6A62.54,62.54,0,0,0,254.33,3.24Z" transform="translate(-0.12)"/>
        <path d="M255.07,2.47c-15.66,4.94-30.45,15.33-44,30.4-5,5.54-10.15,11.84-15.41,18.4C183.66,66,170.72,82,157.88,90.1c-14.06,8.69-26.29,6.81-37.42-5.19-7.83-8.35-13.21-19.34-18.34-29.64-4.65-9.45-9-18.14-14.55-23.68-6-6-12.47-7.15-20.18-3.83C57.39,32,50.64,40,47,51.35l-.49,1.71C42.33,66,42.33,66,36,70.51c-.49.43-1.1.77-1.71,1.28a54.67,54.67,0,0,0-5.75,5.11c-3.3,3.32-6.36,6.39-10.64,6.9-6.72.85-12.72-2.3-17.36-8.52v.34a24.55,24.55,0,0,0,4.77,4.94,16.63,16.63,0,0,0,12.58,3.49c4.16-.51,7.34-3.57,10.64-7a54.42,54.42,0,0,1,5.62-5.11,17.9,17.9,0,0,0,1.74-1.26c6.35-4.51,6.35-4.51,10.51-17.54l.49-1.7c3.67-11.33,10.39-19.25,20.3-23.51,17.24-7.41,25.55,9.2,34.6,27.42,5.1,10.42,10.61,21.29,18.31,29.73,11.25,12,23.48,14,37.54,5.28,13-8,25.92-24,37.91-38.84,5.26-6.56,10.39-12.86,15.4-18.39C227.31,14.9,245.53,3.77,264.86.51V0A97.37,97.37,0,0,0,255.07,2.47Z" transform="translate(-0.12)"/>
        <path d="M246.38,25.63c-7.82,2.14-15.89,5.79-25.43,11.24-9.29,5.37-18.71,12.52-28.37,19.9C174,70.77,156,84.44,138.78,86.23a19.22,19.22,0,0,1-11.25-2.46c-6.48-3.41-12.23-8.94-19.19-18.4-2.57-3.4-4.9-7.15-7.1-10.73-5-7.92-9.53-15.24-15.77-19.24a19.62,19.62,0,0,0-13-3.24c-9.42.85-16.63,5.62-21.52,14C44.35,57.48,44,57.91,37,65.06l-.25.26a55.2,55.2,0,0,0-5.13,6.39,52.87,52.87,0,0,1-6.12,7.4,12.85,12.85,0,0,1-3.91,2.56c-8.19,3.41-15.77.51-21.27-7.49v.25A21.86,21.86,0,0,0,9,82.1a15.47,15.47,0,0,0,12.59-.18,12.82,12.82,0,0,0,3.91-2.55A47,47,0,0,0,31.75,72a55.29,55.29,0,0,1,5.14-6.39l.24-.25c7-7.16,7.46-7.67,13.94-19,4.89-8.35,12-13,21.4-13.88a19.62,19.62,0,0,1,13,3.23c6.11,4,10.76,11.33,15.65,19.16,2.2,3.58,4.53,7.24,7.09,10.73,7,9.46,12.72,15,19.2,18.48a19.64,19.64,0,0,0,11.25,2.47c17.2-1.74,35.2-15.4,53.92-29.45,9.66-7.33,19.08-14.48,28.37-19.84S238.44,28.1,246.26,26a138.45,138.45,0,0,1,18.83-3.74v-.34A125.44,125.44,0,0,0,246.38,25.63Z" transform="translate(-0.12)"/>
        <path d="M246.75,26.14c-7.82,2.05-15.89,5.54-25.43,10.82S202,49.56,192.09,56.89C173.75,70.51,156,83.63,139,85.76a19.51,19.51,0,0,1-11.25-2.13c-6.48-3.24-12.23-8.69-19.2-18-2.57-3.49-5-7.32-7.34-11-4.89-7.75-9.41-15-15.53-19a19.28,19.28,0,0,0-13-3.4C63.3,33,56.08,37.59,51.19,45.85,44.47,57.09,44.1,57.52,37,64.85l-.12.09a54,54,0,0,0-5,6.38,54.38,54.38,0,0,1-6.11,7.5,11.7,11.7,0,0,1-3.92,2.59C13.66,84.91,6,82.1.34,73.92v.26a21.11,21.11,0,0,0,8.92,7.74,16.21,16.21,0,0,0,12.6-.25A13.48,13.48,0,0,0,25.77,79,52.53,52.53,0,0,0,32,71.54a52.31,52.31,0,0,1,5-6.39l.12-.09c7.09-7.32,7.46-7.83,14.18-19,4.9-8.17,12-12.77,21.4-13.54a20.24,20.24,0,0,1,13,3.41c6,4,10.52,11.15,15.53,19,2.33,3.66,4.77,7.49,7.34,11,7,9.29,12.72,14.74,19.32,18.06a19.29,19.29,0,0,0,11.25,2.21c17-2.13,34.72-15.33,53.07-28.87,10-7.41,19.68-14.56,29.22-19.92s17.61-8.8,25.42-10.84a141.19,141.19,0,0,1,18.34-3.49v-.31A131.26,131.26,0,0,0,246.75,26.14Z" transform="translate(-0.12)"/>
        <path d="M247.24,26.77c-7.7,1.87-15.9,5.28-25.43,10.48-9.95,5.33-19.95,12.65-30.21,20.06C173.51,70.43,156,83.12,139.39,85.59a19.26,19.26,0,0,1-11.12-1.88c-6.61-3.15-12.35-8.43-19.32-17.54-2.69-3.58-5.09-7.49-7.58-11.16C96.47,47.35,92,40.28,86.08,36.28c-4.4-3-8.56-4.09-13-3.58-10,1.19-16.75,5.37-21.52,13.2C44.86,57,44.39,57.48,37.29,65a56,56,0,0,0-5,6.47A55.69,55.69,0,0,1,26.18,79a13.53,13.53,0,0,1-3.92,2.64C14,85.25,6.26,82.44.62,74.26v.26a20.51,20.51,0,0,0,9,7.75,15.89,15.89,0,0,0,12.59-.43,15.09,15.09,0,0,0,3.92-2.64,43,43,0,0,0,6.11-7.66,57,57,0,0,1,5-6.48c7.1-7.49,7.58-8,14.31-19.07,4.77-7.75,11.49-12,21.52-13.12,4.4-.51,8.56.68,12.84,3.58,6,4,10.39,11.07,15.28,18.73,2.33,3.75,4.89,7.67,7.58,11.25,7,9.19,12.72,14.47,19.32,17.62a18.9,18.9,0,0,0,11.25,2C156,83.58,173.5,70.89,191.59,57.78,201.86,50.24,212,43,221.86,37.64c9.53-5.19,17.73-8.52,25.43-10.39a146.6,146.6,0,0,1,18-3.23v-.35A124,124,0,0,0,247.24,26.77Z" transform="translate(-0.12)"/>
        <path d="M247.73,27.34c-7.7,1.78-15.9,5-25.56,10-10.31,5.43-20.66,12.82-31.31,20.31-17.73,12.61-35,24.87-51.23,27.6a19.13,19.13,0,0,1-11.13-1.62c-6.6-3-12.47-8.18-19.32-17.2A115.83,115.83,0,0,1,101.48,55c-4.77-7.49-9.3-14.47-15.16-18.56-4.41-3-8.56-4.17-13-3.75-10,1-16.75,5.11-21.64,12.86-6.85,11-7.33,11.41-14.43,19a72.87,72.87,0,0,0-5,6.47,57.12,57.12,0,0,1-6.11,7.67,13.53,13.53,0,0,1-3.92,2.64C13.91,85.09,6.08,82.28.46,74v.26c2.69,3.83,5.75,6.47,9.17,7.84a15.89,15.89,0,0,0,12.59-.6,13.52,13.52,0,0,0,4-2.74A40.13,40.13,0,0,0,32.28,71a45.39,45.39,0,0,1,5-6.47c7.1-7.58,7.46-8,14.43-19.07,4.78-7.71,11.63-11.71,21.53-12.78,4.28-.42,8.56.77,12.84,3.75,5.87,4,10.27,11,15.16,18.48,2.45,3.83,5,7.83,7.83,11.41,7,9,12.72,14.22,19.44,17.2a18.65,18.65,0,0,0,11.25,1.62c16.26-2.81,33.63-15,51.36-27.59,10.63-7.58,21-15,31.3-20.27,9.66-5,17.73-8.26,25.43-10a143.61,143.61,0,0,1,17.49-3v-.34C259.47,25,253.6,26,247.73,27.34Z" transform="translate(-0.12)"/>
        <path d="M248.1,27.85c-7.83,1.7-15.66,4.68-25.56,9.62-10.64,5.37-21.4,12.86-32.4,20.52-17.49,12.1-34.36,23.85-50.26,27a18.88,18.88,0,0,1-11.12-1.36c-6.73-2.9-12.48-7.92-19.45-16.78-2.81-3.66-5.5-7.75-7.94-11.67-4.77-7.41-9.18-14.3-14.92-18.31-4.4-3.06-8.56-4.34-13-3.91-10,.93-16.84,4.81-21.59,12.43-7,10.9-7.58,11.5-14.42,19a62.37,62.37,0,0,0-5,6.56,57.85,57.85,0,0,1-6.11,7.75,13.6,13.6,0,0,1-3.91,2.72C14,85.26,6.15,82.53.53,74.19v.25a20.55,20.55,0,0,0,9.33,7.91,16,16,0,0,0,12.6-.68,13.63,13.63,0,0,0,3.91-2.73,43.63,43.63,0,0,0,6.11-7.83,62.49,62.49,0,0,1,4.9-6.56c6.88-7.49,7.48-8.09,14.48-19,4.75-7.49,11.6-11.5,21.5-12.35,4.28-.42,8.56.85,12.84,3.92,5.75,4,10.15,10.9,14.92,18.31,2.45,3.92,5.14,8,7.95,11.67,7,8.85,12.72,14,19.44,16.86a18.22,18.22,0,0,0,11.13,1.36c16-3.06,32.89-14.82,50.38-27,11-7.67,21.76-15.16,32.4-20.44C232.2,33,240.15,30,248,28.26a150.36,150.36,0,0,1,17-2.72V25.2A162.56,162.56,0,0,0,248.1,27.85Z" transform="translate(-0.12)"/>
        <path d="M251.28,31.85c-9.66,1.11-18.59,4.09-25.8,6.81-14.19,5.2-28.5,14-43,22.74-14.06,8.52-27.87,16.86-40.71,21.46a18.24,18.24,0,0,1-10.89.43c-7-1.79-12.83-6-19.8-14a133.33,133.33,0,0,1-9.42-13.11c-4.16-6.39-8.44-13-13.69-17a23,23,0,0,0-12.84-5.11c-9.17-.6-16.51,2.72-22,9.71-1.1,1.36-2,2.55-2.82,3.57-4.89,6.31-6.35,8.18-12,15a67.17,67.17,0,0,0-4.77,6.82,52.19,52.19,0,0,1-6.11,8.43,17.26,17.26,0,0,1-3.9,3.17C14.92,85.42,6.36,82.77.37,74v.26C3.3,78.6,6.86,81.5,10.86,82.69s8.32.6,12.6-1.7a17.32,17.32,0,0,0,3.91-3.07,52.19,52.19,0,0,0,6.11-8.43,67,67,0,0,1,4.77-6.81c5.75-6.81,7.22-8.69,12.11-15,.85-1,1.71-2.21,2.81-3.58,5.38-6.89,12.72-10.22,21.89-9.62a22.35,22.35,0,0,1,12.71,5.11c5.26,4.09,9.42,10.56,13.7,17A115.75,115.75,0,0,0,111,69.7c7,8,12.83,12.18,19.93,14a18.6,18.6,0,0,0,11-.43c12.84-4.51,26.66-12.94,40.72-21.46,14.43-8.77,28.86-17.46,43-22.65a115.78,115.78,0,0,1,25.8-6.81c4.77-.6,9.41-.94,13.94-1.2v-.42C260.69,30.91,256,31.25,251.28,31.85Z" transform="translate(-0.12)"/>
        <path d="M251.76,32.45c-9.53,1-18.58,3.83-25.92,6.38-14.92,5.2-30,14.23-45.12,23.25-13.33,8-26.53,15.84-38.76,20.44a18.23,18.23,0,0,1-10.88.68c-7-1.62-13-5.7-19.93-13.54a112.22,112.22,0,0,1-9.66-13.28c-4.16-6.31-8.32-12.69-13.57-16.78a23.89,23.89,0,0,0-12.84-5.28c-9.17-.77-16.51,2.47-22,9.28-2.33,3-4,5-5.51,6.9-3.06,3.92-4.9,6.27-9.42,11.67A51.8,51.8,0,0,0,33.5,69a52.93,52.93,0,0,1-6.11,8.52,15.09,15.09,0,0,1-3.91,3.06C14.79,85.42,6.24,82.78.24,73.92v.26C3.3,78.6,6.86,81.5,10.86,82.61a16.43,16.43,0,0,0,12.62-1.84,17.57,17.57,0,0,0,3.91-3.06,52.93,52.93,0,0,0,6.11-8.52c1.59-2.47,3.06-4.77,4.65-6.81,4.52-5.45,6.36-7.84,9.41-11.67,1.47-1.94,3.06-3.94,5.51-6.94C58.45,37,65.78,33.77,75,34.58a22.57,22.57,0,0,1,12.72,5.28c5.19,4.08,9.29,10.47,13.45,16.77A120.72,120.72,0,0,0,110.78,70c7,7.84,13,11.92,19.93,13.63A18.23,18.23,0,0,0,141.59,83c12.23-4.6,25.44-12.44,38.77-20.44,15.16-9,30.2-18.06,45.12-23.25,7.33-2.56,16.26-5.37,25.8-6.39,4.64-.51,9-.85,13.45-1v-.34C260.86,31.59,256.41,31.94,251.76,32.45Z" transform="translate(-0.12)"/>
        <path d="M252.13,33c-9.54.85-18.58,3.58-25.92,6-15.65,5.19-31.55,14.56-47.44,23.84-12.6,7.41-25.07,14.74-36.56,19.34a18.37,18.37,0,0,1-10.89.93c-7.09-1.45-13-5.45-19.93-13.11a109.37,109.37,0,0,1-9.9-13.46C97.33,50.37,93.17,44.06,88.16,40a23.36,23.36,0,0,0-12.72-5.45c-9.17-.86-16.5,2.21-22,8.85-4.28,5.2-6.35,7.92-8.68,10.65-1.71,2.13-3.54,4.34-6.36,7.83a69.55,69.55,0,0,0-4.65,6.91,53.46,53.46,0,0,1-6.12,8.6,15.05,15.05,0,0,1-3.91,3.15C15,85.46,6.36,82.91.37,74.05v.26c3.05,4.51,6.72,7.4,10.76,8.51s8.31.43,12.59-2a18,18,0,0,0,3.91-3.15,57.07,57.07,0,0,0,6.12-8.6,58.48,58.48,0,0,1,4.64-6.82c2.82-3.49,4.65-5.7,6.36-7.83,2.2-2.81,4.4-5.45,8.68-10.65,5.51-6.64,12.84-9.71,22-8.85a24,24,0,0,1,12.73,5.36c5,4.09,9.17,10.39,13.33,16.61a117.07,117.07,0,0,0,9.9,13.54c7,7.75,13,11.75,20.06,13.2a18.34,18.34,0,0,0,10.88-.94c11.49-4.6,24-11.92,36.68-19.33,15.9-9.37,31.79-18.65,47.44-23.85,7.34-2.47,16.39-5.11,25.93-6,4-.34,8.43-.68,13-.85v-.34A108.63,108.63,0,0,0,252.13,33Z" transform="translate(-0.12)"/>
        <path d="M255.8,37.64a127.68,127.68,0,0,0-26.29,2.73c-27.76,5.19-55.88,22-80.7,36.79-1.47.93-3.06,1.78-4.53,2.64a20.79,20.79,0,0,1-10.51,3.06c-7.22,0-13.33-3-20.42-9.88-4.28-4.21-7.95-9.71-11.49-14.9-3.8-5.62-7.59-11.31-12.11-15.31A27.57,27.57,0,0,0,77.16,36c-9-2-16.51.09-22.38,5.71A91.77,91.77,0,0,0,40.59,58.08c-.36.6-.85,1.11-1.22,1.79A70.63,70.63,0,0,0,35,66.94a65.72,65.72,0,0,1-6.11,9.45,23.23,23.23,0,0,1-3.79,3.49c-8.56,5.79-17.37,4-23.73-4.34-.36-.43-.61-.85-1-1.36v.25a8.36,8.36,0,0,0,.85,1.28C7.55,84.05,16.35,85.84,25,80.05a18.91,18.91,0,0,0,3.82-3.49A65.72,65.72,0,0,0,35,67.11c1.47-2.56,2.81-4.94,4.28-7.07a14.48,14.48,0,0,0,1.22-1.79C45.61,51.18,47.2,49,54.66,41.9,60.53,36.28,68,34.23,77,36.19a27.62,27.62,0,0,1,12.6,6.73c4.52,4,8.31,9.71,12,15.33,3.42,5.19,7.09,10.73,11.49,14.9,7.1,6.9,13.21,9.88,20.55,9.88A20.8,20.8,0,0,0,144.3,80c1.47-.86,2.94-1.79,4.53-2.64,24.82-14.74,53.07-31.51,80.7-36.71a128.36,128.36,0,0,1,26.29-2.72l9.41.25v-.38C262,37.77,259,37.77,255.8,37.64Z" transform="translate(-0.12)"/>
        <path d="M256.29,38.24c-9.29-.34-18.22.93-26.29,2.3-28.61,4.85-58,22-85.35,38.92a21.24,21.24,0,0,1-10.51,3.31c-7.34.17-13.45-2.64-20.55-9.46-4.4-4.25-8.07-9.79-11.61-15.07-3.67-5.54-7.46-11.16-11.86-15.16a28.11,28.11,0,0,0-12.6-6.9C68.6,34.18,61,36,55,41.55c-7.58,7-9.17,9.28-14.3,16.52l-1.1,1.62a67.94,67.94,0,0,0-4.28,7.08,61.8,61.8,0,0,1-6.12,9.53,19.49,19.49,0,0,1-3.79,3.58c-8.56,5.88-17.36,4.26-23.72-4L.61,74.35v.25c.37.51.73,1,1,1.45,6.36,8.34,15.28,10,23.84,4.09a17,17,0,0,0,3.79-3.58A71.6,71.6,0,0,0,35.36,67c1.46-2.55,2.81-4.94,4.28-7.07l1.1-1.61C45.87,51.1,47.46,48.88,55,41.9c6-5.54,13.45-7.32,22.38-5.28A28,28,0,0,1,90,43.52c4.41,4,8.2,9.62,11.86,15.16,3.55,5.28,7.22,10.81,11.62,15.07,7.09,6.81,13.21,9.71,20.54,9.54A21.19,21.19,0,0,0,144.67,80C172.06,63.1,201.41,45.9,230,41.13c8.07-1.36,17-2.64,26.29-2.3,2.93.09,6,.26,8.92.34v-.34A78.63,78.63,0,0,0,256.29,38.24Z" transform="translate(-0.12)"/>
        <path d="M256.78,38.77c-9.3-.43-18.22.68-26.41,1.87-29.84,4.52-61.14,22.74-85.47,38.49a21.53,21.53,0,0,1-10.52,3.58c-7.46.43-13.33-2.3-20.54-9-4.53-4.3-8.19-9.94-11.86-15.29S94.64,47.35,90.24,43.35a28.32,28.32,0,0,0-12.6-7.07c-8.92-2.22-16.5-.51-22.49,4.94-7.71,6.9-9.3,9.2-14.56,16.6l-1,1.45c-1.47,2.13-2.82,4.52-4.28,7.07A67.14,67.14,0,0,1,29.19,76a19.49,19.49,0,0,1-3.79,3.58C16.86,85.5,8.07,84,1.71,75.77c-.37-.51-.85-1.1-1.22-1.7v.26a13.46,13.46,0,0,0,1.1,1.61C8,84.2,16.87,85.74,25.43,79.69a17,17,0,0,0,3.79-3.58,63.87,63.87,0,0,0,6.12-9.7c1.46-2.56,2.81-4.94,4.28-7.07l1-1.45c5.26-7.41,6.85-9.71,14.56-16.52,6-5.37,13.45-7.07,22.37-4.94a29.4,29.4,0,0,1,12.6,7.07c4.4,4,8.07,9.54,11.73,15s7.34,11,11.87,15.24c7.21,6.81,13.2,9.45,20.66,9.11a21.17,21.17,0,0,0,10.45-3.57c24.45-15.66,55.63-33.89,85.47-38.4,8.19-1.2,17.11-2.39,26.29-1.88,2.81.17,5.62.26,8.43.43v-.34C262.4,39.09,259.59,38.92,256.78,38.77Z" transform="translate(-0.12)"/>
        <path d="M240.51,44.77c-18.46-4.51-35-4.76-49.15-.93-15.77,4.26-29.22,13.71-40.11,27.76a50.56,50.56,0,0,1-9.66,10.05c-5.62,4.17-12,7.15-22,.94-6.48-4-11.12-11.16-15.89-18.57a122.08,122.08,0,0,0-8.44-12C91.1,47.08,87.19,43.42,83,40.87c-8.56-5.45-16.26-6.9-23.59-4.69-9.66,2.9-12.11,7.07-17,16.87-1.1,2.12-2.08,4.51-3.18,7.06A86.66,86.66,0,0,1,33,73a26.41,26.41,0,0,1-3.66,4.69c-8,8.27-17.13,9.37-24.5,3.24a24.82,24.82,0,0,1-4.4-5.19V76a26.7,26.7,0,0,0,4.28,5.2c7.46,6.13,16.63,5,24.58-3.24A29.62,29.62,0,0,0,33,73.24a87.66,87.66,0,0,0,6.24-12.86c1.1-2.47,2.08-4.86,3.18-7.07,4.89-9.79,7.34-13.88,16.87-16.78,7.34-2.21,15-.76,23.48,4.69A56.77,56.77,0,0,1,95,52.37a123.19,123.19,0,0,1,8.43,12c4.77,7.5,9.54,14.65,16,18.65,10.15,6.22,16.63,3.32,22.26-.93a58.58,58.58,0,0,0,9.78-10c20.66-26.57,49.76-36.37,89-26.66a246.75,246.75,0,0,1,24.7,7.24v-.43A230.48,230.48,0,0,0,240.51,44.77Z" transform="translate(-0.12)"/>
        <path d="M240.86,45c-39.62-10.38-68.84-.68-89.38,26.32a53,53,0,0,1-9.66,10.3c-5.63,4.35-12,7.5-22.13,1.37-6.48-4-11.25-11.24-16-18.74C101,60.12,98.31,56,95.37,52.29A54.6,54.6,0,0,0,83.15,41c-8.56-5.53-16.29-7.19-23.6-5.11-9.78,2.73-12.11,6.9-17,16.78-1.1,2.13-2.08,4.51-3.06,7a88.14,88.14,0,0,1-6.23,13,26.92,26.92,0,0,1-3.67,4.77C21.59,85.74,12.47,86.93,5,81A25.63,25.63,0,0,1,.49,75.69V76a25.67,25.67,0,0,0,4.37,5.21c7.46,6,16.63,4.85,24.58-3.58a27,27,0,0,0,3.7-4.81,91.37,91.37,0,0,0,6.35-13c1.1-2.47,2.08-4.85,3.06-7,4.89-9.88,7.34-14,17-16.78,7.33-2,15-.42,23.6,5.11a54.49,54.49,0,0,1,12.1,11.33,139.09,139.09,0,0,1,8.32,11.84c4.89,7.58,9.53,14.81,16.14,18.82,10.15,6.21,16.63,3.06,22.25-1.37a53.2,53.2,0,0,0,9.66-10.39C172,44.42,201.26,34.8,240.76,45.11c6.72,1.78,15.41,4.17,24.33,7.4v-.42C256.29,49.14,247.61,46.77,240.86,45Z" transform="translate(-0.12)"/>
        <path d="M241.37,45.14c-40-11.08-69.21-1.54-89.5,25.8-3.55,4.68-6.61,8.17-9.66,10.56-5.51,4.51-12,7.83-22.26,1.7-6.6-3.92-11.37-11.24-16.26-18.82A127.15,127.15,0,0,0,95.5,52.63a56.1,56.1,0,0,0-12.23-11.5C74.86,35.43,67,33.77,59.55,35.6c-9.78,2.55-12.23,6.72-17.12,16.77-1.1,2.13-2.08,4.52-3.06,7a91.34,91.34,0,0,1-6.23,13.1,26.92,26.92,0,0,1-3.67,4.77c-7.83,8.43-17,9.71-24.61,3.83A26.13,26.13,0,0,1,.21,75.71V76a26.18,26.18,0,0,0,4.65,5.37c7.46,5.87,16.75,4.6,24.7-3.83a31,31,0,0,0,3.67-4.86,98.28,98.28,0,0,0,6.36-13.2,74.41,74.41,0,0,1,3-7c4.89-10,7.22-14.14,17-16.69,7.46-2,15.16-.17,23.6,5.53A56.06,56.06,0,0,1,95.37,52.77a127.25,127.25,0,0,1,8.2,11.75c4.89,7.58,9.66,15,16.26,18.91,10.27,6.13,16.75,2.81,22.38-1.71a58.23,58.23,0,0,0,9.65-10.61c20.29-27.25,49.52-36.79,89.38-25.72,6.48,1.79,15,4.34,24,7.67v-.29C256.41,49.48,247.86,47,241.37,45.14Z" transform="translate(-0.12)"/>
        <path d="M241.74,45.39c-19-5.53-35.58-6.47-49.52-3-16,3.94-29.36,13.56-40.11,28.38a66,66,0,0,1-9.54,10.9c-5.5,4.68-12,8.17-22.25,2.13-6.73-3.92-11.46-11.33-16.39-19a120.53,120.53,0,0,0-8.07-11.63,57.72,57.72,0,0,0-12.1-11.67C75.32,35.6,67.5,33.77,60,35.6,50.13,38,47.56,42.5,42.92,52.29c-1,2.13-2,4.51-3.06,7A84.86,84.86,0,0,1,33.5,72.58a30.56,30.56,0,0,1-3.64,4.83c-7.82,8.52-17,10-24.57,4.17A22,22,0,0,1,.52,76.13v.26a20.72,20.72,0,0,0,4.77,5.45C12.87,87.63,22,86.27,30,77.67a31.12,31.12,0,0,0,3.64-4.9A95.09,95.09,0,0,0,40,59.4c1-2.47,2-4.77,3.06-6.9,4.82-9.73,7.21-14.26,17.12-16.56,7.46-1.79,15.16.08,23.6,5.87a59.76,59.76,0,0,1,12.1,11.67,122.91,122.91,0,0,1,8.07,11.67c4.89,7.66,9.66,15.07,16.39,19.07,10.27,6,16.87,2.56,22.37-2.12a57.67,57.67,0,0,0,9.66-10.91c20.06-27.59,49.28-37,89.51-25.2,9.17,2.72,16.63,5.19,23.48,7.83V53.4A216.27,216.27,0,0,0,241.74,45.39Z" transform="translate(-0.12)"/>
        <path d="M242.23,45.56c-19.08-5.88-35.71-7-49.77-3.75-16,3.75-29.47,13.46-40.11,28.53a65.25,65.25,0,0,1-9.49,11.16c-5.51,4.85-12,8.52-22.38,2.55-6.76-3.91-11.62-11.28-16.55-19.07C101.37,61.06,98.8,57,96,53.4A61.3,61.3,0,0,0,83.86,41.56c-8.44-6-16.26-8-23.72-6.3C50.14,37.47,47.67,42,42.9,52q-1.47,3.19-2.94,6.9A86.48,86.48,0,0,1,33.61,72.3a36,36,0,0,1-3.55,4.86c-7.83,8.6-17,10.13-24.58,4.42A21.91,21.91,0,0,1,.59,76v.26A20,20,0,0,0,5.5,81.77c7.58,5.71,16.88,4.26,24.7-4.42a27.74,27.74,0,0,0,3.66-5,96.53,96.53,0,0,0,6.36-13.54c1-2.47,2-4.77,2.93-6.9,4.71-9.88,7.23-14.39,17.13-16.61,7.58-1.62,15.29.34,23.72,6.3A61.2,61.2,0,0,1,96.11,53.48c2.81,3.58,5.38,7.58,8,11.5,5,7.75,9.78,15.24,16.63,19.16,10.39,6,16.87,2.3,22.49-2.56a65.47,65.47,0,0,0,9.54-11.15c19.88-27.93,49.09-37.22,89.58-24.66,8.8,2.73,16.26,5.28,23,8v-.43C258.49,50.84,251,48.2,242.23,45.56Z" transform="translate(-0.12)"/>
        <path d="M242.72,45.77c-19.2-6.22-36-7.58-49.89-4.43-16,3.62-29.47,13.43-40.11,28.75a64.7,64.7,0,0,1-9.54,11.41c-5.5,5-12,8.86-22.37,3-6.85-3.83-11.74-11.41-16.63-19.25a120,120,0,0,0-7.83-11.41,62.8,62.8,0,0,0-12.1-12C75.86,35.68,68,33.55,60.4,35.09c-10.15,2-12.59,6.55-17.24,16.6-1,2.13-1.95,4.43-2.93,6.9a85.77,85.77,0,0,1-6.37,13.63,42,42,0,0,1-3.55,4.94c-7.82,8.68-17,10.3-24.7,4.76a23.68,23.68,0,0,1-5-5.7v.25a23.16,23.16,0,0,0,5,5.63c7.71,5.62,16.88,4,24.7-4.77A31.64,31.64,0,0,0,34,72.39a85.27,85.27,0,0,0,6.36-13.71q1.52-3.7,2.94-6.91c4.65-10,7.22-14.56,17.25-16.52,7.58-1.54,15.4.59,23.72,6.72a62.8,62.8,0,0,1,12.1,12,120,120,0,0,1,7.83,11.41c5,7.84,9.9,15.42,16.75,19.34,10.39,5.87,17,2,22.5-3A66,66,0,0,0,153,70.31c20-28.7,48.54-37.55,89.87-24.18,8.56,2.81,15.89,5.45,22.62,8.17v-.42C258.49,51.1,251.15,48.46,242.72,45.77Z" transform="translate(-0.12)"/>
        <path d="M244.79,46.58c-20.17-8.09-36.68-10.47-50.62-7.92-16.26,3-29.71,13.12-40.23,29.81a88.78,88.78,0,0,1-9.29,12.77c-5.5,6-12,10.56-22.74,5.11-7.22-3.66-12.23-11.66-17.49-19.84a128.88,128.88,0,0,0-7.33-10.9,74.07,74.07,0,0,0-12-12.84C76.67,35.87,69,33.15,61,34c-10.51,1.11-13.32,6.39-17.6,16.35-.86,2-1.71,4.26-2.57,6.64a101.34,101.34,0,0,1-6.36,14.57,43.88,43.88,0,0,1-3.55,5.21C23.35,85.88,14.06,88.1,6.11,83A23.59,23.59,0,0,1,.37,76.86v.25a23.09,23.09,0,0,0,5.62,6c8,5.11,17.24,3,24.94-6.22a39,39,0,0,0,3.55-5.19A119.08,119.08,0,0,0,41,57.14c.86-2.38,1.71-4.6,2.57-6.64,4.28-9.88,7-15.24,17.48-16.27,8-.85,15.53,1.88,24,8.78A73.51,73.51,0,0,1,97,55.87a112.5,112.5,0,0,1,7.17,10.9C109.31,75,114.33,83,121.66,86.69c10.76,5.54,17.37.86,22.87-5.11,2.81-3,5.62-7,9.41-12.77,19.32-30.57,47.92-38.75,90.61-21.72C251.89,50,258.61,53,265,56v-.43C258.86,52.37,252.13,49.48,244.79,46.58Z" transform="translate(-0.12)"/>
        <path d="M245.28,46.77c-20.29-8.43-36.8-11.07-50.74-8.6-16.39,2.9-29.71,13.12-40.23,30a90.11,90.11,0,0,1-9.29,13c-5.5,6.13-12,10.9-22.75,5.53-7.33-3.66-12.35-11.66-17.6-20C102.34,63,100,59.29,97.45,56a75.88,75.88,0,0,0-12-13c-8.44-7-16-9.88-24.09-9.2C50.72,34.71,48,40.08,43.75,50.12c-.85,2-1.71,4.26-2.56,6.56a92.89,92.89,0,0,1-6.48,14.73,38.48,38.48,0,0,1-3.55,5.2c-7.58,9.2-16.87,11.5-24.82,6.47A21.83,21.83,0,0,1,.47,77v.26a23.46,23.46,0,0,0,5.75,6.13c7.94,5,17.36,2.72,24.94-6.56a39.94,39.94,0,0,0,3.55-5.28,121.53,121.53,0,0,0,6.5-14.73c.85-2.3,1.71-4.52,2.56-6.56,4.28-10,7-15.33,17.61-16.27,7.95-.68,15.65,2.13,24.09,9.2a75.88,75.88,0,0,1,12,13c2.57,3.41,4.89,7.07,7.22,10.73,5.25,8.35,10.27,16.35,17.6,20.1,10.89,5.45,17.37.6,23-5.54a91.19,91.19,0,0,0,9.3-13.11c19.19-30.91,47.8-39,90.72-21.21,7.1,3,13.7,5.88,20.06,9v-.43C259,52.63,252.38,49.65,245.28,46.77Z" transform="translate(-0.12)"/>
      </g>
    </g>
  </g>
</svg>
