<svg id="Layer_1_copy_2" data-name="Layer 1 copy 2" xmlns="http://www.w3.org/2000/svg" viewBox="0 0 265.83 96.01">
  <title>lines2</title>
  <g id="Layer_1" data-name="Layer 1">
    <g opacity="0.5">
      <g>
        <path class="line1" d="M265.09,10.14c-2.2-.94-4.76-2-7.7-3.24C247.12,2.81,239.54,2,232.57,4s-14.06,7.49-21.64,16.83a169.53,169.53,0,0,0-10.19,14.22c-9.3,14-17.85,26.83-30.33,21.38-7.53-3.3-14.43-11.9-21-19.9-5.86-7.24-11.73-14.48-17.67-17.63C126,15.84,117.19,13.63,110,16.35c-4.4,1.62-8.68,7.24-12.84,12.52C94,33,91,36.79,88.58,38c-3.72,1.78-7.84-5.88-12.16-13.8a97,97,0,0,0-6.48-10.82,20.84,20.84,0,0,0-3.79-4.53C56.74,1.26,55.27,5.59,51.74,17.1c-.48,1.74-1.1,3.68-1.86,5.74C45,37.47,35.24,66.94,24.6,61.4,16.63,57.23,9.74,31.84,5,14,3.3,7.67,1.88,2.3.61-1.39l-.12.17C1.71,2.52,3.18,7.89,4.88,14.11,7.33,23.39,10.26,34,13.44,43c3.91,10.65,7.46,16.78,11,18.74C35.08,67.33,45,37.78,49.88,23.05c.73-2,1.34-4,1.83-5.71C55.39,5.61,56.62,1.71,66,9.2a23,23,0,0,1,3.71,4.41A90,90,0,0,1,76.1,24.42c4.28,8,8.56,15.67,12.35,13.89,2.44-1.2,5.5-5,8.68-9.12,4.16-5.28,8.44-10.9,12.71-12.51,7.22-2.73,15.9-.52,21.65,2.55,6,3.15,11.86,10.39,17.73,17.63,6.48,8.09,13.45,16.69,21,20,12.58,5.57,21.14-7.25,30.52-21.43a169.53,169.53,0,0,1,10.19-14.22C225.6,3.15,237.22-.59,257.15,7.33c2.93,1.19,5.5,2.3,7.82,3.23v-.42Z"  fill="none" stroke="#000" stroke-miterlimit="10" stroke-width="0.25"/>
        <path class="line1" d="M263.63,9.84C261.43,9,259,8,256.17,6.94c-19.57-7.28-31.55-3.19-46.29,14.9a161.23,161.23,0,0,0-10,13.68c-9.54,14-18.09,26.74-30.69,21-7.58-3.41-14.43-12.09-20.91-20.18-5.75-7.21-11.58-14.54-17.58-17.73C125,15.54,116.28,13.24,108.94,16c-4.4,1.7-9,7.58-13.08,12.77-3.06,4-6,7.67-8.32,8.94-3.66,2-7.66-5.28-12-12.84A92.75,92.75,0,0,0,69.1,14.28a25.78,25.78,0,0,0-3.79-4.35C56,2.69,54.67,6.93,51,18.19c-.49,1.71-1.22,3.58-1.83,5.62C46.6,31.14,42.81,42.12,38.41,50.3c-5.14,9.54-10,13-14.43,10.54-7.72-4.29-14.24-28-19.24-46.61C3.06,7.84,1.59,2.39.25-1.39V-1c1.22,3.83,2.69,9.2,4.4,15.42C9.65,33,16,56.84,23.88,61.11c4.52,2.47,9.41-1,14.55-10.64,4.4-8.26,8.19-19.16,10.76-26.57.73-2,1.34-3.93,1.83-5.62,1.83-5.62,3.06-9.37,4.89-10.9s4.65-.77,9.17,2.81a24.22,24.22,0,0,1,3.69,4.21,113.1,113.1,0,0,1,6.45,10.44c4.28,7.7,8.32,15,12.11,13,2.44-1.28,5.25-5,8.31-9,4-5.11,8.56-11.07,13-12.69,7.34-2.72,15.9-.51,21.64,2.64,6,3.24,11.87,10.48,17.61,17.72,6.48,8.17,13.33,16.77,21,20.27,12.72,5.79,21.4-7.07,30.94-21.12,3.18-4.6,6.36-9.46,9.9-13.71,14.68-17.89,26.66-22,46.1-14.82,2.81,1,5.26,2,7.46,2.89.61.26,1.1.43,1.59.6v-.43A3.46,3.46,0,0,1,263.63,9.84Z"  fill="none" stroke="#000" stroke-miterlimit="10" stroke-width="0.25"/>
        <path class="line1" d="M261.67,9.46c-2-.77-4.28-1.54-6.72-2.39-19.32-6.64-31.31-2.3-46.21,15.84-3.43,4.17-6.61,8.77-9.66,13.2-9.66,14-18.47,26.73-31.2,20.73-7.59-3.58-14.43-12.27-20.79-20.44-5.75-7.33-11.5-14.65-17.49-18-5.74-3.15-14.3-5.45-21.76-2.64-4.53,1.7-9.29,7.75-13.33,12.94-2.93,3.84-5.75,7.41-8.07,8.77-3.72,2.25-7.72-4.73-11.72-12a86.34,86.34,0,0,0-6.48-10.22l-.12-.09a22.11,22.11,0,0,0-3.67-4c-9.17-6.81-10.51-2.73-14.18,8.18-.61,1.61-1.23,3.49-2,5.53h0C45.72,32,41.92,42.67,37.52,50.61c-5.14,9.11-9.9,12.35-14.31,9.88C15.65,56.12,9.42,32.84,4.53,14.74,2.94,8.84,1.59,3.74.37,0V.43C1.59,4.18,2.94,9.2,4.53,14.91,9.42,33.05,15.65,56.3,23.23,60.72c4.41,2.56,9.3-.68,14.43-9.88,4.4-7.92,8.19-18.56,10.76-25.71h0c.74-2,1.35-3.84,2-5.54,3.67-10.73,5-14.82,14.06-8.09a22.5,22.5,0,0,1,3.55,4l.12.09a87.71,87.71,0,0,1,6.44,10.25c4.16,7.32,8.19,14.3,12,12,2.29-1.4,5.14-5,8.07-8.81,4-5.19,8.81-11.19,13.22-12.94,7.33-2.73,15.89-.51,21.64,2.64,6,3.24,11.74,10.64,17.49,17.88,6.47,8.23,13.31,17,20.87,20.53,12.83,6,21.76-6.73,31.42-20.78,3.06-4.43,6.24-9,9.66-13.2,14.92-18,26.78-22.31,46-15.67,2.56.85,4.76,1.7,6.72,2.38,1.22.43,2.45.85,3.55,1.28v-.43C264,10.31,262.88,9.84,261.67,9.46Z"  fill="none" stroke="#000" stroke-miterlimit="10" stroke-width="0.25"/>
        <path class="line1" d="M252.62,8.09c-1-.25-2.08-.42-3.18-.68-17.85-3.91-30.2,1.71-45.73,19.93-2.93,3.49-5.74,7.24-8.56,10.82C184.64,52,175,64.73,161.77,57.49c-7.58-4.18-14.18-13.12-20.54-21.55-5.5-7.49-11.13-15.07-17.12-18.65C117,13,109,11.93,102.47,14.4c-5,2-10.27,8.6-14.67,14.3a56.78,56.78,0,0,1-6.61,7.67c-3.67,3.15-7.09-2.13-11-8.18a59.36,59.36,0,0,0-6.45-8.68L63.25,19a20.37,20.37,0,0,0-3.06-2.81c-8.44-5.19-10-1.27-13.69,8.09-.62,1.54-1.23,3.24-2.08,5C39,42,29.26,65,19.72,58.27,13,53.48,7.46,32.61,3.06,16.35c-1-3.49-1.84-6.89-2.69-10v.43c.85,3,1.71,6.3,2.69,9.7,4.4,16.36,10,37.36,16.75,42.07,9.66,6.9,19.44-16.18,24.94-29,.74-1.78,1.47-3.57,2.08-5.11,3.67-9.28,5.26-13.2,13.58-8a19.35,19.35,0,0,1,3,2.72l.49.52a59.56,59.56,0,0,1,6.48,8.68c4,6,7.46,11.41,11.25,8.18a62.94,62.94,0,0,0,6.6-7.7c4.51-5.7,9.71-12.35,14.73-14.26,6.48-2.47,14.43-1.45,21.52,2.89,5.87,3.58,11.49,11.16,17,18.57,6.24,8.43,13,17.45,20.55,21.63,13.45,7.32,23.11-5.37,33.62-19.42,2.69-3.58,5.5-7.32,8.44-10.73,15.41-18,27.79-23.68,45.49-19.68,1.1.26,2.2.51,3.17.68,5.14,1.11,9.05,2,12.48,2.39v-.43A109.9,109.9,0,0,1,252.62,8.09Z"  fill="none" stroke="#000" stroke-miterlimit="10" stroke-width="0.25"/>
        <path class="line1" d="M243.45,7.75c-16.26-1-29,6-45.24,24.36-2.32,2.64-4.52,5.36-6.73,7.92-11.61,14-22.25,26.83-36.31,18C147.59,53.26,141.11,44,135,35.3c-5.62-8-10.76-15.5-16.5-19.34-7-4.68-14.8-5.79-21.52-3.15-6,2.39-12.23,10.56-17,17-1.47,2-2.93,3.83-4.16,5.28-3.67,4.26-6.6.51-10.39-4.17a38.79,38.79,0,0,0-6.36-6.82l-.73-.49a17.68,17.68,0,0,0-2.82-1.87c-7.58-3.49-9.41.43-13.08,8.09-.61,1.36-1.47,3-2.2,4.6C34.74,45.05,25,64,15.88,56.21,10,51.21,5.36,33.39,1.33,18.06,1,16.7.61,15.42.25,14.14v.47c.36,1.19.61,2.38,1,3.57,4,15.33,8.81,33.13,14.68,38.24C25.1,64.34,35,45.26,40.38,34.62,41.24,33,42,31.38,42.58,30c3.79-7.83,5.51-11.41,13-8a25,25,0,0,1,2.82,1.87l.73.51a34.25,34.25,0,0,1,6.36,6.81C69.28,36,72.34,39.73,76,35.39c1.23-1.45,2.57-3.33,4.16-5.28,4.77-6.39,11-14.57,17-16.87,6.72-2.64,14.55-1.53,21.4,3.15,5.74,3.84,10.88,11.33,16.5,19.34,6.12,8.77,12.48,18,20.18,22.82,14.18,8.94,24.82-3.92,36.56-18,2.2-2.64,4.4-5.37,6.72-7.92,16.14-18.31,28.86-25.3,45-24.28,9.42.6,15.29.86,21.64-.34V7.54C258.74,8.61,252.88,8.35,243.45,7.75Z"  fill="none" stroke="#000" stroke-miterlimit="10" stroke-width="0.25"/>
        <path class="line1" d="M242.88,7.75c-16.1-.76-28.73,6.39-45.1,24.79-2.2,2.55-4.4,5.1-6.48,7.66-11.74,14.14-22.5,26.91-36.56,17.88-7.58-4.85-14.06-14.13-20-22.82-5.63-8.09-10.76-15.5-16.51-19.42-6.85-4.77-14.8-5.87-21.52-3.23C90.49,15,84.13,23.34,79.24,29.9c-1.36,1.87-2.69,3.57-3.79,4.94-3.71,4.43-6.61.78-10.28-3.83a35.67,35.67,0,0,0-6.35-6.64l-.74-.53a11.78,11.78,0,0,0-2.69-1.79c-7.46-3.32-9.41.51-13.08,8C41.74,31.42,40.84,33,40,34.6c-5.51,10.36-15.25,29-24.34,21C9.88,50.5,5.26,33,1.22,17.89,1,16.78.61,15.67.37,14.57V15c.24.94.49,2,.73,3,4,15.16,8.68,32.7,14.43,37.85C24.7,63.93,34.53,45.2,40,34.72c.85-1.61,1.58-3.15,2.32-4.51,3.67-7.49,5.5-11.24,13-7.92A11.78,11.78,0,0,1,58,24.08l.73.51a35.41,35.41,0,0,1,6.36,6.64c3.79,4.6,6.73,8.26,10.4,3.83,1.1-1.36,2.44-3.06,3.79-4.93,4.89-6.6,11.12-14.95,17.24-17.29,6.72-2.64,14.55-1.54,21.39,3.23C123.66,20,128.8,27.4,134.3,35.49c6.11,8.77,12.47,18,20.18,22.91,14.18,9,24.94-3.75,36.8-18,2.08-2.47,4.28-5.11,6.48-7.66,16.26-18.4,29-25.55,45-24.7,9.54.51,15.53.68,22.25-.85V6.76C258.37,8.35,252.5,8.18,242.88,7.75Z"  fill="none" stroke="#000" stroke-miterlimit="10" stroke-width="0.25"/>
        <path class="line1" d="M234.16,8.26c-15.65,3.24-28.28,14.23-44.42,31.35l-2.56,2.81c-13.94,15-26.54,28.53-42.07,16.7-7.7-5.8-13.81-15.5-19.56-24.7-5.26-8.35-10.15-16.1-15.78-20.44-6.6-5.19-14.3-6.47-21.39-3.58C79.48,14,70.68,27.51,67.5,33.05c-3.67,6.13-6,4.34-9.42,1.7A20.87,20.87,0,0,0,52,31.09l-1.09-.48a3.65,3.65,0,0,0-2.2-.6C41.22,31.8,39.38,34.35,34,41.59l-.12.17C26.18,52.15,17.62,61.18,10,52.32,6.24,47.84,3.18,37.61.25,26.74v.43C3.06,38,6.12,48,9.88,52.46c3.54,4.09,7.45,4.69,12.22,1.71,4.28-2.73,8.44-7.92,11.62-12.27l.12-.17c5.38-7.24,7.22-9.71,14.55-11.49a3.61,3.61,0,0,1,2.2.51l1.1.51a22.78,22.78,0,0,1,6.19,3.66c3.54,2.69,5.9,4.51,9.54-1.79,3.3-5.53,12-19,20.9-22.57C95.42,7.75,103,9,109.6,14.14c5.62,4.34,10.39,12.09,15.65,20.35,5.75,9.2,12,18.91,19.57,24.7,15.65,11.92,28.36-1.7,42.3-16.78.86-.93,1.71-1.87,2.57-2.72,16-17.12,28.61-28.1,44.26-31.26A147.81,147.81,0,0,0,264.88-1v-.37A128.91,128.91,0,0,1,234.16,8.26Z"  fill="none" stroke="#000" stroke-miterlimit="10" stroke-width="0.25"/>
        <path class="line1" d="M233.55,8.35c-15.41,3.41-28.13,14.56-44.27,31.76-.73.77-1.46,1.62-2.2,2.39C173,57.57,160.3,71.2,144.53,59.19c-7.7-5.88-13.79-15.58-19.56-24.78-5.23-8.35-10.15-16.1-15.65-20.53-6.58-5.27-14.19-6.47-21.4-3.66C78.5,14,69.45,28.61,67,32.84c-3.67,6.3-6,4.59-9.42,2a22.21,22.21,0,0,0-6.11-3.49,6.12,6.12,0,0,1-1.1-.43,3.48,3.48,0,0,0-2.2-.51c-7.3,2-9.17,4.43-14.67,11.62l-.13.09C26.17,51.66,17.24,61,9.66,52,6,47.65,3.06,38,.25,27.47v.43C2.94,38.33,5.88,47.84,9.54,52.21c3.55,4.17,7.46,4.85,12.23,2,4.28-2.55,8.43-7.66,11.61-11.92l.13-.09c5.38-7.11,7.23-9.59,14.55-11.54a3.68,3.68,0,0,1,2.2.51,6.12,6.12,0,0,0,1.1.43,20.41,20.41,0,0,1,6.11,3.49C61,37.64,63.34,39.35,67,33,69.45,28.7,78.5,14.14,87.88,10.39,95,7.58,102.55,8.78,109.15,14c5.55,4.34,10.4,12.09,15.65,20.44,5.75,9.2,11.87,19,19.57,24.87,15.77,12.09,28.61-1.54,42.8-16.7.73-.76,1.46-1.61,2.2-2.38C205.51,23,218.22,11.93,233.51,8.52a162.72,162.72,0,0,0,31.42-10v-.43A152,152,0,0,1,233.55,8.35Z"  fill="none" stroke="#000" stroke-miterlimit="10" stroke-width="0.25"/>
        <path class="line1" d="M233.06,8.35c-16.63,4-30.2,17.29-44.27,32.19a17.17,17.17,0,0,1-2,2c-14.31,15.3-27.15,28.87-42.91,16.7-7.7-6-13.82-15.67-19.56-24.87-5.26-8.35-10-16.1-15.66-20.53-6.6-5.28-14.18-6.55-21.39-3.66C77.65,14.06,68.88,28.61,66.4,32.84c-3.66,6.38-5.87,4.73-9.3,2.38A19.11,19.11,0,0,0,51,32a5.42,5.42,0,0,1-1.1-.42,3,3,0,0,0-2.2-.43c-7.22,2-9.17,4.52-14.67,11.58v.13C25.8,52.12,16.88,61.15,9.29,52c-3.55-4.26-6.35-13.43-9-23.51V29c2.56,9.88,5.5,19,8.92,23.25,7.58,9.28,16.63.17,23.85-9.2v-.09c5.5-7.06,7.33-9.45,14.55-11.58a3.59,3.59,0,0,1,2.2.43,5.42,5.42,0,0,0,1.1.42,20.17,20.17,0,0,1,6,3.24c3.42,2.47,5.75,4.09,9.54-2.47,2.43-4.26,11.21-18.73,20.87-22.57,7.09-2.81,14.67-1.61,21.27,3.67,5.5,4.42,10.4,12.17,15.65,20.52,5.75,9.2,11.86,19,19.57,25C159.7,71.93,172.66,58.13,187,42.89a17.17,17.17,0,0,1,2-2C203,26,216.48,12.78,233.11,8.78a185.69,185.69,0,0,0,32-10.65v-.52A182.87,182.87,0,0,1,233.06,8.35Z"  fill="none" stroke="#000" stroke-miterlimit="10" stroke-width="0.25"/>
        <path class="line1" d="M255.43-2.3c-8.8,3.92-16.26,7.16-26.28,10.9-15.41,5.8-28.86,19.59-43.53,34.84l-.37.34c-14.51,15.06-28.74,29.83-45.51,15.92C132,53.31,126.05,43.35,120.42,34c-5.13-8.51-9.78-16.35-15.28-21-4.65-3.92-12-7.58-21.28-3.83-8.19,3.32-16.38,14-20.78,22.82-3.18,6.39-5.14,5.53-7.83,4.17-1.83-.85-4-2-7.09-1.11a2.48,2.48,0,0,1-1.59-.19A2,2,0,0,0,45,34.76c-6.46,2.83-8.91,5.33-14,10.83l-.37.43C24,53,14.71,60.75,7.13,50.36,4.65,47,2.57,41,.61,34.11v.5c2,6.73,4,12.6,6.48,16,7.58,10.47,17,2.72,23.6-4.34l.37-.43c5.26-5.54,7.58-8.09,14.06-10.9a2.62,2.62,0,0,1,1.59.08,2.56,2.56,0,0,0,1.59.18c3.06-.77,5.26.25,7.09,1.1,2.69,1.36,4.77,2.3,8-4.17,4.49-8.88,12.54-19.52,20.74-22.76,9.29-3.76,16.61-.08,21.15,3.83,5.5,4.6,10.15,12.44,15.29,21,5.62,9.46,11.61,19.42,19.31,25.81,16.88,14,31.18-.85,45.74-15.93l.36-.34C200.66,28.58,214,14.79,229.39,9c10-3.75,17.49-7,26.41-10.91,3.06-1.36,6.24-2.72,9.66-4.17V-6.5C261.55-5,258.49-3.66,255.43-2.3Z"  fill="none" stroke="#000" stroke-miterlimit="10" stroke-width="0.25"/>
        <path class="line2" d="M251.74-1.27c-7.46,3.32-14.43,6.38-23.24,9.87-15,5.88-28.12,19.34-42.43,34.24l-1.33,1.36c-14.55,15-28.74,29.64-45.61,15.64-7.7-6.39-13.69-16.44-19.32-25.89-5-8.52-9.78-16.44-15.28-21C100,9,92.53,5.29,83.25,9.12c-8.31,3.41-16.38,14-20.79,22.91-3.17,6.56-5,5.7-7.82,4.43a9.63,9.63,0,0,0-7.09-.94A2.63,2.63,0,0,1,46,35.35a2.48,2.48,0,0,0-1.59-.08c-6.22,2.77-8.79,5.39-13.8,10.6l-.49.6c-6.6,6.81-15.89,14.19-23.48,3.66C4.28,46.84,2.32,41.31.49,34.84v.43c1.83,6.3,3.79,11.75,6.11,15,7.59,10.64,17,3.15,23.6-3.66l.49-.6c5-5.19,7.58-7.83,13.82-10.64a2,2,0,0,1,1.59.08,3.39,3.39,0,0,0,1.64.17,9.44,9.44,0,0,1,7,.94c2.69,1.19,4.65,2.13,8-4.52,4.32-8.86,12.39-19.42,20.7-22.83,9.3-3.75,16.63-.08,21.16,3.83,5.5,4.58,10.19,12.52,15.19,21,5.62,9.45,11.62,19.5,19.32,25.89,7.34,6.13,14.92,7.32,23.11,3.4,7.29-3.49,14.5-10.49,22.66-19L186.23,43c14.46-14.82,27.42-28.27,42.46-34.16,8.8-3.41,15.77-6.56,23.23-9.88,4.16-1.79,8.44-3.75,13.33-5.79v-.43Z"  fill="none" stroke="#000" stroke-miterlimit="10" stroke-width="0.25"/>
        <path class="line2" d="M248.22-.16c-6.6,3-12.72,5.71-20.3,8.86-14.67,6-27.39,19.16-41.45,33.64l-2.32,2.38c-13.82,14.22-28.74,29.46-45.73,15.12-7.71-6.47-13.58-16.52-19.2-26-5-8.52-9.78-16.44-15.16-21.12C99.53,8.83,92.2,5.08,82.74,8.92c-8.44,3.4-16.51,14-20.78,22.9-3.22,6.65-5.1,5.88-7.79,4.76a9.56,9.56,0,0,0-7-.68,3.42,3.42,0,0,1-1.59-.06,2,2,0,0,0-1.59,0c-6.11,2.81-8.56,5.36-13.57,10.3l-.86.85C23,53.6,13.74,60.71,6.24,50,4,46.93,2.24,41.73.49,35.77v.43C2.2,42.07,4,47.1,6.24,50.2c7.58,10.82,16.87,3.58,23.47-3l.86-.85C35.46,41.41,38,38.86,44,36.05a2.41,2.41,0,0,1,1.59,0,3.42,3.42,0,0,0,1.59.08c3.06-.93,5.14,0,7,.68,2.81,1.2,4.65,2,8-4.85C66.48,23.1,74.55,12.54,83,9.14c9.3-3.84,16.63-.09,21.16,3.83,5.5,4.68,10.15,12.52,15.16,21,5.62,9.46,11.49,19.5,19.32,26.06,7.34,6.22,14.92,7.5,23.23,3.66,7.46-3.49,14.67-10.47,22.74-18.82l2.29-2.38C200.94,28,213.66,15,228.21,8.94,235.79,5.78,241.9,3.06,248.5.08c5.14-2.3,10.52-4.77,16.88-7.41v-.43C258.74-4.94,253.36-2.55,248.22-.16Z"  fill="none" stroke="#000" stroke-miterlimit="10" stroke-width="0.25"/>
        <path class="line2" d="M244.8.77c-5.51,2.55-11,5.11-17.49,7.92C213,14.82,200.66,27.6,187,41.69c-1.1,1.11-2.2,2.3-3.3,3.41-16.63,17-30,28.27-45.85,14.73-7.71-6.56-13.58-16.6-19.2-26.06-5-8.51-9.66-16.43-15.16-21.2C97,7,89.63,5.67,82.17,8.65c-8.43,3.53-16.51,14.09-20.79,23-3.3,6.81-5.13,6.13-7.82,5.11a9.69,9.69,0,0,0-7-.51A2.55,2.55,0,0,1,45,36.16a2.54,2.54,0,0,0-1.59,0c-5.87,2.9-8.44,5.45-13.21,10-.36.34-.73.76-1.1,1.1C22.5,53.65,13.21,60.42,5.74,49.52,3.66,46.52,2,41.86.36,36.32v.43c1.6,5.36,3.31,10,5.38,12.9,3.14,4.56,7.14,6.43,11.49,5.41,3.43-.76,7.34-3.32,12-7.75a11.42,11.42,0,0,1,1.1-1.1c4.64-4.6,7.33-7.16,13.2-10a2.09,2.09,0,0,1,1.59,0,3.29,3.29,0,0,0,1.59.09,9.34,9.34,0,0,1,6.85.51c2.81,1,4.64,1.7,8-5.2,4.23-8.77,12.18-19.34,20.61-22.77,7.34-3,14.67-1.7,21.15,3.92,5.38,4.68,10.15,12.6,15.17,21.12C124.11,43.42,130,53.46,137.68,60c7.34,6.3,14.92,7.58,23.24,3.92,7.58-3.41,15-10.65,22.86-18.65,1.1-1.11,2.2-2.3,3.3-3.41,13.7-14.13,26.17-26.82,40.35-32.95,6.48-2.81,12-5.37,17.49-7.84,6.36-2.89,12.47-5.79,20.17-9v-.42C257.39-5,251.16-2.16,244.8.77Z"  fill="none" stroke="#000" stroke-miterlimit="10" stroke-width="0.25"/>
        <path class="line2" d="M265-13.39C248.59-6.89,237.74-.51,222.42,9c-11,6.81-21.4,17.62-32,28.69-3.66,3.84-7.45,7.67-11.25,11.5-14.67,14.56-29.71,26.7-46.58,11.24-7.71-7.07-13.45-17.37-19-27.16-4.9-8.69-9.42-16.78-14.8-21.72-6.36-6-13.57-7.24-21.15-4.09C69.45,10.84,61.38,19.93,57,30.61c-3.91,9.28-5.26,9.19-8.92,9.11a23.32,23.32,0,0,0-5.14.34c-1,.17-2.08.43-3.06.68-3.66,1-6.11,3.49-8.68,6a38.69,38.69,0,0,1-5.3,4.6c-9.9,7-17.6,5.53-23.11-3.67A21.73,21.73,0,0,1,.61,42.84v.34a42.44,42.44,0,0,0,2.2,4.68C8.32,57.15,16,58.61,25.88,51.61a46,46,0,0,0,5.38-4.68c2.57-2.56,5.14-5,8.69-6a23.67,23.67,0,0,1,3-.68,30.48,30.48,0,0,1,5.14-.34c3.79.08,5.13.17,9-9.2C61.63,20.1,69.74,11,77.88,7.61c7.58-3.15,14.67-1.79,21,4.09,5.38,4.94,9.78,13,14.68,21.72,5.5,9.71,11.24,20,19,27.16C140,67.4,147.72,69.35,156,66.46s15.9-9.79,23.36-17.12c3.79-3.75,7.58-7.66,11.25-11.49,10.64-11.08,21-21.89,32-28.62C237.92-.22,248.8-6.61,265.19-13.08h.12v-.43A.7.7,0,0,1,265-13.39Z"  fill="none" stroke="#000" stroke-miterlimit="10" stroke-width="0.25"/>
        <path class="line2" d="M264.36-13.71C247.49-7.15,236.36-.34,221.81,9,211.17,15.84,201,26.49,190.63,37.3c-3.89,4.09-7.95,8.31-12,12.31C164,64.09,148.91,76.18,131.92,60.51c-7.71-7.15-13.45-17.45-18.83-27.25-4.89-8.68-9.3-16.78-14.68-21.8-6.36-6-13.57-7.32-21.15-4.17C69.09,10.69,61,19.84,56.62,30.45c-3.92,9.45-5.26,9.45-9,9.54a19.14,19.14,0,0,0-5,.51,23.56,23.56,0,0,0-3,.77c-3.55,1.1-6,3.4-8.56,6A40.33,40.33,0,0,1,25.5,52c-9.9,6.64-17.6,5-23-4.34-.61-1.19-1.35-2.56-2-4.09v.32c.6,1.45,1.24,2.75,1.82,3.92,5.56,9.47,13.21,11.08,23.11,4.45a47.39,47.39,0,0,0,5.51-4.69c2.57-2.47,5-4.85,8.43-5.87a23,23,0,0,1,3.06-.81,24,24,0,0,1,5-.42c3.8-.09,5.14-.09,9-9.63C60.88,20.27,68.88,11.16,77,7.75,84.62,4.6,91.83,6,98,11.93c5.38,4.94,9.78,13,14.67,21.71,5.38,9.8,11.13,20.1,19,27.34,7.46,6.9,15.16,8.94,23.48,6.13s16.38-10,23.35-17c4-4,8.07-8.18,12-12.35,10.34-10.85,20.51-21.41,31.2-28.22C236.29.26,247.41-6.55,264.29-13.11c.24-.09.37-.17.61-.26v-.42C264.88-13.88,264.61-13.79,264.36-13.71Z"  fill="none" stroke="#000" stroke-miterlimit="10" stroke-width="0.25"/>
        <path class="line2" d="M263.88-14C246.64-7.39,234.66.17,221.21,9c-10.41,6.81-20.33,17.2-30.33,27.81C186.73,41.27,182.45,45.7,178,50,164,63.84,148.32,76.48,131.2,60.55c-7.7-7.24-13.45-17.54-18.83-27.33-4.89-8.78-9.29-16.87-14.63-21.89C91.38,5.33,84.17,4,76.59,7.16c-8.48,3.45-16.31,12.45-20.71,23.16-3.91,9.62-5.26,9.71-9,9.88a32.35,32.35,0,0,0-5,.6c-1,.25-2,.51-3.06.85-3.3,1.1-5.74,3.4-8.31,5.79a42.5,42.5,0,0,1-5.77,4.77c-9.9,6.38-17.61,4.51-23-5A32.23,32.23,0,0,1,.15,44v.34c.49,1.1,1,2.21,1.47,3.06C7.12,57,14.88,58.84,24.73,52.49a41,41,0,0,0,5.75-4.77c2.57-2.38,4.89-4.68,8.19-5.79a25,25,0,0,1,3.07-.88,24.75,24.75,0,0,1,5-.59c3.91-.18,5.14-.26,9.17-10,4.4-10.73,12.23-19.62,20.54-23.08,7.58-3.15,14.8-1.79,21,4.18,5.25,5,9.78,13.11,14.55,21.8,5.38,9.79,11.12,20.18,19,27.42,7.46,6.9,15.16,9.11,23.6,6.3s16.5-10,23.47-16.86c4.41-4.26,8.69-8.77,12.84-13.2,10.15-10.56,19.93-21,30.33-27.76,13.45-8.86,25.43-16.35,42.55-23,.37-.17.73-.25,1.22-.42v-.43A2.29,2.29,0,0,1,263.88-14Z"  fill="none" stroke="#000" stroke-miterlimit="10" stroke-width="0.25"/>
        <path class="line2" d="M255.31-19.33C240.15-14,226.21-4.51,212.52,9.54c-5.87,6.07-11.64,13.07-17.73,20.3-8.07,9.71-16.27,19.42-24.7,27.25-19.57,18.11-34.21,19-48.21,4.4-7.83-8.18-13.21-19-18.46-29.3-4.54-8.94-8.68-17.28-13.91-22.73-6.24-6.56-13-8-21-4.52-6.85,2.9-15.63,9.29-20.42,23.59-4.53,13.63-4.65,13.71-10.4,17.31-.73.51-1.59,1-2.57,1.62a31.73,31.73,0,0,0-3,2.17c-1.35,1.1-2.57,2.21-3.79,3.4-3.06,2.9-5.87,5.62-9.78,6.39C11.25,60.84,4.88,57.84,0,51.06v.25c4.88,6.81,11.25,9.79,18.59,8.35,3.79-.77,6.72-3.5,9.78-6.39,1.22-1.11,2.44-2.3,3.79-3.41a22.57,22.57,0,0,1,2.93-2.13c1-.59,1.84-1.19,2.57-1.61,5.75-3.58,5.87-3.67,10.52-17.38C53,14.48,61.74,8.18,68.6,5.28c8.07-3.4,14.67-2,20.91,4.52,5.13,5.45,9.29,13.71,13.81,22.65,5.14,10.3,10.64,21.12,18.47,29.3,7.58,7.92,15.4,11.24,24,9.79C153,70.35,161,65.75,170.13,57.32c8.43-7.84,16.5-17.55,24.7-27.25,6.11-7.23,11.86-14.23,17.73-20.23,13.57-14,27.51-23.59,42.67-28.79A78.87,78.87,0,0,1,265-21.59V-22A81.8,81.8,0,0,0,255.31-19.33Z"  fill="none" stroke="#000" stroke-miterlimit="10" stroke-width="0.25"/>
        <path class="line2" d="M254.82-19.58C239.66-14.39,225.74-4.68,212,9.71c-5.51,5.88-11,12.61-16.88,19.5-8.41,10.14-16.75,20.4-25.41,28.4C157.39,68.94,139.66,81,121.44,61.7c-7.82-8.26-13.2-19.08-18.46-29.38C98.45,23.38,94.3,15,89.16,9.58c-6.24-6.64-13-8-21-4.6-6.9,2.86-15.82,9.33-20.42,23.55v.17c-4.53,13.8-4.53,13.8-10.52,17.72-.73.42-1.46.93-2.32,1.53S33.07,49.23,32,50.16s-2.33,2.13-3.43,3.15c-3.18,3.07-6.11,5.88-10,6.56-7.1,1.28-13.33-1.7-18.1-8.34v.25c4.77,6.64,11,9.62,18.22,8.35,3.91-.68,6.84-3.49,10-6.56,1.1-1,2.21-2.13,3.43-3.15S34.17,48.8,35,48.2s1.59-1.1,2.33-1.53c6-3.92,6-3.92,10.63-17.8V28.7C52.58,14.61,61.51,8.18,68.35,5.28c8.07-3.4,14.68-2,20.91,4.52,5.14,5.45,9.3,13.71,13.82,22.65,5.14,10.3,10.64,21.21,18.46,29.47,7.58,8,15.41,11.32,24.09,10,7.34-1.1,15.29-5.62,24.46-14,8.68-8,17.12-18.22,25.55-28.36,5.75-7,11.37-13.71,16.88-19.5,13.57-14.3,27.51-24,42.67-29.21a93.53,93.53,0,0,1,10.27-2.72v-.43A56.51,56.51,0,0,0,254.82-19.58Z"  fill="none" stroke="#000" stroke-miterlimit="10" stroke-width="0.25"/>
        <path class="line2" d="M254.21-19.92c-15,5.11-29.47,15.24-42.79,29.63-5.26,5.71-10.64,12.18-16.14,19C186.72,39.27,178,49.83,169.11,58c-19.32,17.71-34.48,18.48-48.3,3.75C113,53.4,107.6,42.61,102.47,32.28,97.94,23.34,93.79,15,88.65,9.46c-6.23-6.65-13-8-21-4.6C57.74,9.12,50.88,17,47.2,28.45l-.24.93c-4.28,13.37-4.28,13.37-10.52,17.55-.61.42-1.35.85-2.08,1.45a32.47,32.47,0,0,0-2.93,2.29q-1.61,1.42-3.06,3c-3.18,3.17-6.24,6.17-10.27,6.72-7,1-13.09-2-17.73-8.43v.26A23.32,23.32,0,0,0,5.63,57.5a16.66,16.66,0,0,0,12.59,3.11c4-.6,7.09-3.58,10.39-6.73,1-.94,2.08-2,3.06-3a24,24,0,0,1,2.94-2.27l2.07-1.45C42.88,43,42.88,43,47.2,29.53l.24-.92c3.67-11.32,10.4-19.24,20.3-23.5,8.07-3.4,14.68-2,20.91,4.6,5.14,5.45,9.29,13.8,13.7,22.74C107.48,42.75,113,53.66,120.81,62c7.58,8.09,15.41,11.5,24.09,10.22,7.33-1,15.28-5.54,24.45-13.88C178.28,50.16,187,39.52,195.52,29c5.5-6.72,10.88-13.28,16.14-19C225-4.34,239.29-14.39,254.33-19.5a67.56,67.56,0,0,1,10.76-2.72v-.34A62.54,62.54,0,0,0,254.21-19.92Z"  fill="none" stroke="#000" stroke-miterlimit="10" stroke-width="0.25"/>
        <path class="line2" d="M255-20.69c-15.66,4.94-30.45,15.33-44,30.4-5,5.54-10.15,11.84-15.41,18.4-12,14.73-24.94,30.73-37.78,38.83-14.06,8.69-26.29,6.81-37.42-5.19C112.51,53.4,107.13,42.41,102,32.11,97.35,22.66,93,14,87.45,8.43c-6-6-12.47-7.15-20.18-3.83-10,4.24-16.75,12.24-20.39,23.59l-.49,1.71c-4.18,12.94-4.18,12.94-10.51,17.45-.49.43-1.1.77-1.71,1.28a54.67,54.67,0,0,0-5.75,5.11c-3.3,3.32-6.36,6.39-10.64,6.9-6.72.85-12.72-2.3-17.36-8.52v.34A24.81,24.81,0,0,0,5.19,57.4a16.63,16.63,0,0,0,12.58,3.49c4.16-.51,7.34-3.57,10.64-7A54.42,54.42,0,0,1,34,48.78a17.9,17.9,0,0,0,1.74-1.26C42.12,43,42.12,43,46.28,30l.49-1.7C50.44,17,57.16,9,67.07,4.77c17.24-7.41,25.55,9.2,34.6,27.42,5.1,10.42,10.61,21.29,18.31,29.73,11.25,12,23.48,14,37.54,5.28,13-8,25.92-24,37.91-38.84,5.26-6.56,10.39-12.86,15.4-18.39,16.36-18.23,34.58-29.36,53.91-32.62v-.51A97.37,97.37,0,0,0,255-20.69Z"  fill="none" stroke="#000" stroke-miterlimit="10" stroke-width="0.25"/>
        <path class="line2" d="M246.26,2.47c-7.82,2.14-15.89,5.79-25.43,11.24-9.29,5.37-18.71,12.52-28.37,19.9-18.58,14-36.58,27.67-53.8,29.46a19.22,19.22,0,0,1-11.25-2.46c-6.48-3.41-12.23-8.94-19.19-18.4-2.57-3.4-4.9-7.15-7.1-10.73-5-7.92-9.53-15.24-15.77-19.24A19.62,19.62,0,0,0,72.35,9c-9.42.85-16.63,5.62-21.52,14-6.6,11.32-6.95,11.75-13.95,18.9l-.25.26a55.2,55.2,0,0,0-5.13,6.39A52.87,52.87,0,0,1,25.38,56a12.85,12.85,0,0,1-3.91,2.56C13.28,61.92,5.7,59,.2,51v.25a21.86,21.86,0,0,0,8.68,7.67,15.47,15.47,0,0,0,12.59-.18,12.82,12.82,0,0,0,3.91-2.55,47.24,47.24,0,0,0,6.25-7.37,55.29,55.29,0,0,1,5.14-6.39L37,42.2C44,35,44.47,34.53,51,23.2c4.89-8.35,12-13,21.4-13.88a19.62,19.62,0,0,1,13,3.23c6.11,4,10.76,11.33,15.65,19.16,2.2,3.58,4.53,7.24,7.09,10.73,7,9.46,12.72,15,19.2,18.48a19.64,19.64,0,0,0,11.25,2.47c17.2-1.74,35.2-15.4,53.92-29.45,9.66-7.33,19.08-14.48,28.37-19.84s17.49-9.16,25.31-11.26A138.45,138.45,0,0,1,265-.9v-.34A125.36,125.36,0,0,0,246.26,2.47Z"  fill="none" stroke="#000" stroke-miterlimit="10" stroke-width="0.25"/>
        <path class="line2" d="M246.63,3C238.81,5,230.74,8.52,221.2,13.8S201.88,26.4,192,33.73c-18.34,13.62-36.09,26.74-53.09,28.87a19.51,19.51,0,0,1-11.25-2.13c-6.48-3.24-12.23-8.69-19.2-18-2.57-3.49-5-7.32-7.34-11-4.89-7.75-9.41-15-15.53-19a19.28,19.28,0,0,0-13-3.4c-9.38.77-16.6,5.36-21.49,13.62-6.72,11.24-7.09,11.67-14.19,19l-.12.09a54,54,0,0,0-5,6.38,53.65,53.65,0,0,1-6.11,7.5,11.7,11.7,0,0,1-3.92,2.59c-8.19,3.5-15.85.69-21.51-7.49V51a21.11,21.11,0,0,0,8.92,7.74,16.21,16.21,0,0,0,12.6-.25,13.58,13.58,0,0,0,3.91-2.67,52.89,52.89,0,0,0,6.23-7.46,52.31,52.31,0,0,1,5-6.39L37,41.9c7.09-7.32,7.46-7.83,14.18-19,4.9-8.17,12-12.77,21.4-13.54a20.24,20.24,0,0,1,13,3.41c6,4,10.52,11.15,15.53,19,2.33,3.66,4.77,7.49,7.34,11,7,9.29,12.72,14.74,19.32,18.06A19.29,19.29,0,0,0,139,63c17-2.13,34.72-15.33,53.07-28.87,10-7.41,19.68-14.56,29.22-19.92s17.61-8.8,25.42-10.84A141.19,141.19,0,0,1,265.07-.08V-.39A131.12,131.12,0,0,0,246.63,3Z"  fill="none" stroke="#000" stroke-miterlimit="10" stroke-width="0.25"/>
        <path class="line3" d="M247.12,3.61c-7.7,1.87-15.9,5.28-25.43,10.48-9.95,5.33-19.95,12.65-30.21,20.06C173.39,47.27,155.88,60,139.27,62.43a19.26,19.26,0,0,1-11.12-1.88C121.54,57.4,115.8,52.12,108.83,43c-2.69-3.58-5.09-7.49-7.58-11.16C96.35,24.19,91.88,17.12,86,13.12c-4.4-3-8.56-4.09-13-3.58-10,1.19-16.75,5.37-21.52,13.2-6.7,11.1-7.17,11.58-14.27,19.1a56,56,0,0,0-5,6.47,55.86,55.86,0,0,1-6.11,7.53,13.53,13.53,0,0,1-3.92,2.64c-8.26,3.61-16,.8-21.64-7.38v.26a20.54,20.54,0,0,0,9,7.75,15.89,15.89,0,0,0,12.59-.43A15.09,15.09,0,0,0,26,56a43,43,0,0,0,6.11-7.66,57,57,0,0,1,5-6.48c7.1-7.49,7.58-8,14.31-19.07C56.2,15.08,62.92,10.83,73,9.71c4.4-.51,8.56.68,12.84,3.58,6,4,10.39,11.07,15.28,18.73,2.33,3.75,4.89,7.67,7.58,11.25,7,9.19,12.72,14.47,19.32,17.62a18.9,18.9,0,0,0,11.25,2c16.66-2.47,34.16-15.16,52.25-28.27,10.27-7.54,20.41-14.78,30.27-20.14C231.27,9.29,239.47,6,247.17,4.09a146.6,146.6,0,0,1,18-3.23V.51A124,124,0,0,0,247.12,3.61Z"  fill="none" stroke="#000" stroke-miterlimit="10" stroke-width="0.25"/>
        <path class="line3" d="M247.61,4.18c-7.7,1.78-15.9,5-25.56,10C211.74,19.61,201.39,27,190.74,34.49c-17.73,12.61-35,24.87-51.23,27.6a19.13,19.13,0,0,1-11.13-1.62c-6.6-3-12.47-8.18-19.32-17.2a116,116,0,0,1-7.7-11.43c-4.77-7.49-9.3-14.47-15.16-18.56-4.41-3-8.56-4.17-13-3.75-10,1-16.75,5.11-21.64,12.86-6.85,11-7.33,11.41-14.43,19a71,71,0,0,0-5,6.47A57.12,57.12,0,0,1,26,55.53a13.53,13.53,0,0,1-3.92,2.64C13.79,61.93,6,59.12.34,50.84v.26C3,54.93,6.09,57.57,9.51,58.94a15.89,15.89,0,0,0,12.59-.6,13.38,13.38,0,0,0,4-2.74,39.94,39.94,0,0,0,6.06-7.76,45.39,45.39,0,0,1,5-6.47c7.1-7.58,7.46-8,14.43-19.07,4.78-7.71,11.63-11.71,21.53-12.78,4.28-.42,8.56.77,12.84,3.75,5.87,4,10.27,11,15.16,18.48,2.45,3.83,5,7.83,7.83,11.41,7,9,12.72,14.22,19.44,17.2A18.65,18.65,0,0,0,139.64,62C155.9,59.17,173.27,47,191,34.39c10.63-7.58,21-15,31.3-20.27,9.66-5,17.73-8.26,25.43-10a143.61,143.61,0,0,1,17.49-3V.78C259.35,1.84,253.48,2.84,247.61,4.18Z"  fill="none" stroke="#000" stroke-miterlimit="10" stroke-width="0.25"/>
        <path class="line3" d="M248,4.69c-7.83,1.7-15.66,4.68-25.56,9.62C211.78,19.68,201,27.17,190,34.83c-17.49,12.1-34.36,23.85-50.26,27a18.88,18.88,0,0,1-11.12-1.36c-6.73-2.9-12.48-7.92-19.45-16.78-2.81-3.66-5.5-7.75-7.94-11.67-4.77-7.41-9.18-14.3-14.92-18.31-4.4-3.06-8.56-4.34-13-3.91-10,.93-16.84,4.81-21.59,12.43-7,10.9-7.58,11.5-14.42,19a62.37,62.37,0,0,0-5,6.56,57.85,57.85,0,0,1-6.11,7.75,13.6,13.6,0,0,1-3.91,2.72C13.88,62.1,6,59.37.41,51v.25a20.6,20.6,0,0,0,9.33,7.91,16,16,0,0,0,12.6-.68,13.63,13.63,0,0,0,3.91-2.73A43.63,43.63,0,0,0,32.36,48a63.92,63.92,0,0,1,4.9-6.56c6.88-7.49,7.48-8.09,14.48-19,4.75-7.49,11.6-11.5,21.5-12.35,4.28-.42,8.56.85,12.84,3.92,5.75,4,10.15,10.9,14.92,18.31,2.45,3.92,5.14,8,8,11.67,7,8.85,12.72,14,19.44,16.86a18.22,18.22,0,0,0,11.13,1.36c16-3.06,32.89-14.82,50.38-27,11-7.67,21.76-15.16,32.4-20.44C232.08,9.84,240,6.84,247.88,5.1a150.36,150.36,0,0,1,17-2.72V2A163.13,163.13,0,0,0,248,4.69Z"  fill="none" stroke="#000" stroke-miterlimit="10" stroke-width="0.25"/>
        <path class="line3" d="M251.16,8.69c-9.66,1.11-18.59,4.09-25.8,6.81-14.19,5.2-28.5,14-43,22.74C168.3,46.76,154.49,55.1,141.65,59.7a18.24,18.24,0,0,1-10.89.43c-7-1.79-12.83-6-19.8-14A133.33,133.33,0,0,1,101.54,33c-4.16-6.39-8.44-13-13.69-17A23,23,0,0,0,75,10.91c-9.17-.6-16.51,2.72-22,9.71-1.1,1.36-2,2.55-2.82,3.57-4.89,6.31-6.35,8.18-12,15A67.17,67.17,0,0,0,33.42,46a52.19,52.19,0,0,1-6.11,8.43,17.26,17.26,0,0,1-3.9,3.17c-8.61,4.65-17.17,2-23.16-6.77v.26c2.93,4.34,6.49,7.24,10.49,8.43s8.32.6,12.6-1.7a17.32,17.32,0,0,0,3.91-3.07,52.19,52.19,0,0,0,6.11-8.43,67,67,0,0,1,4.77-6.81c5.75-6.81,7.22-8.69,12.11-15,.85-1,1.71-2.21,2.81-3.58,5.38-6.89,12.72-10.22,21.89-9.62a22.35,22.35,0,0,1,12.71,5.11c5.26,4.09,9.42,10.56,13.7,17a115.66,115.66,0,0,0,9.53,13.11c7,8,12.83,12.18,19.93,14a18.6,18.6,0,0,0,11-.43c12.84-4.51,26.66-12.94,40.72-21.46,14.43-8.77,28.86-17.46,43-22.65a115.78,115.78,0,0,1,25.8-6.81c4.77-.6,9.41-.94,13.94-1.2V7.57C260.57,7.75,255.88,8.09,251.16,8.69Z"  fill="none" stroke="#000" stroke-miterlimit="10" stroke-width="0.25"/>
        <path class="line3" d="M251.64,9.29c-9.53,1-18.58,3.83-25.92,6.38-14.92,5.2-30,14.23-45.12,23.25-13.33,8-26.53,15.84-38.76,20.44A18.23,18.23,0,0,1,131,60c-7-1.62-13-5.7-19.93-13.54a111.4,111.4,0,0,1-9.66-13.28c-4.16-6.31-8.32-12.69-13.57-16.78A23.89,23.89,0,0,0,75,11.16c-9.17-.77-16.51,2.47-22,9.28-2.33,3-4,5-5.51,6.9C44.39,31.26,42.55,33.61,38,39a52,52,0,0,0-4.65,6.83,52.93,52.93,0,0,1-6.11,8.52,15.26,15.26,0,0,1-3.91,3.06C14.67,62.26,6.12,59.62.12,50.76V51c3.06,4.42,6.62,7.32,10.62,8.43a16.43,16.43,0,0,0,12.62-1.84,17.57,17.57,0,0,0,3.91-3.06A52.93,52.93,0,0,0,33.38,46C35,43.56,36.44,41.26,38,39.22c4.52-5.45,6.36-7.84,9.41-11.67,1.47-1.94,3.06-3.94,5.51-6.94,5.38-6.77,12.71-10,21.93-9.19A22.57,22.57,0,0,1,87.6,16.7c5.19,4.08,9.29,10.47,13.45,16.77a121.6,121.6,0,0,0,9.61,13.37c7,7.84,13,11.92,19.93,13.63a18.3,18.3,0,0,0,10.88-.63c12.23-4.6,25.44-12.44,38.77-20.44,15.16-9,30.2-18.06,45.12-23.25,7.33-2.56,16.26-5.37,25.8-6.39,4.64-.51,9-.85,13.45-1V8.42A125.91,125.91,0,0,0,251.64,9.29Z"  fill="none" stroke="#000" stroke-miterlimit="10" stroke-width="0.25"/>
        <path class="line3" d="M252,9.84c-9.54.85-18.58,3.58-25.92,6C210.44,21,194.54,30.4,178.65,39.68c-12.6,7.41-25.07,14.74-36.56,19.34A18.37,18.37,0,0,1,131.2,60c-7.09-1.45-13-5.45-19.93-13.11a109.37,109.37,0,0,1-9.9-13.46C97.21,27.21,93.05,20.9,88,16.84a23.36,23.36,0,0,0-12.72-5.45c-9.17-.86-16.5,2.21-22,8.85C49,25.44,47,28.16,44.64,30.89c-1.71,2.13-3.54,4.34-6.36,7.83a69.55,69.55,0,0,0-4.65,6.91,53.46,53.46,0,0,1-6.12,8.6,15.05,15.05,0,0,1-3.91,3.15C14.88,62.3,6.24,59.75.25,50.89v.26C3.3,55.66,7,58.55,11,59.66s8.31.43,12.59-2a18,18,0,0,0,3.91-3.15,57.07,57.07,0,0,0,6.12-8.6,57.26,57.26,0,0,1,4.64-6.82c2.82-3.49,4.65-5.7,6.36-7.83,2.2-2.81,4.4-5.45,8.68-10.65,5.51-6.64,12.84-9.71,22-8.85A24,24,0,0,1,88,17.12c5,4.09,9.17,10.39,13.33,16.61a117.07,117.07,0,0,0,9.9,13.54c7,7.75,13,11.75,20.06,13.2a18.34,18.34,0,0,0,10.88-.94c11.49-4.6,24-11.92,36.68-19.33,15.9-9.37,31.79-18.65,47.44-23.85,7.34-2.47,16.39-5.11,25.93-6,4-.34,8.43-.68,13-.85V9.16A108.59,108.59,0,0,0,252,9.84Z"  fill="none" stroke="#000" stroke-miterlimit="10" stroke-width="0.25"/>
        <path class="line3" d="M255.68,14.48a127.68,127.68,0,0,0-26.29,2.73c-27.76,5.19-55.88,22-80.7,36.79-1.47.93-3.06,1.78-4.53,2.64a20.79,20.79,0,0,1-10.51,3.06c-7.22,0-13.33-3-20.42-9.88-4.28-4.21-8-9.71-11.49-14.9-3.8-5.62-7.59-11.31-12.11-15.31A27.61,27.61,0,0,0,77,12.84c-9-2-16.51.09-22.38,5.71A91.9,91.9,0,0,0,40.47,34.92c-.36.6-.85,1.11-1.22,1.79a72.23,72.23,0,0,0-4.37,7.07,65.72,65.72,0,0,1-6.11,9.45A23.23,23.23,0,0,1,25,56.72c-8.56,5.79-17.37,4-23.73-4.34C.89,52,.64,51.53.25,51v.25a8.36,8.36,0,0,0,.85,1.28c6.33,8.34,15.13,10.13,23.78,4.34A18.91,18.91,0,0,0,28.7,53.4,66.16,66.16,0,0,0,34.88,44c1.47-2.56,2.81-4.94,4.28-7.07a14.48,14.48,0,0,0,1.22-1.79c5.11-7.07,6.7-9.25,14.16-16.35,5.87-5.62,13.34-7.67,22.34-5.71a27.62,27.62,0,0,1,12.6,6.73c4.52,4,8.31,9.71,12,15.33C104.9,40.28,108.57,45.82,113,50c7.1,6.9,13.21,9.88,20.55,9.88a20.78,20.78,0,0,0,10.66-3c1.47-.86,2.94-1.79,4.53-2.64,24.82-14.74,53.07-31.51,80.7-36.71a128.36,128.36,0,0,1,26.29-2.72l9.41.25v-.38C261.88,14.61,258.88,14.61,255.68,14.48Z"  fill="none" stroke="#000" stroke-miterlimit="10" stroke-width="0.25"/>
        <path class="line3" d="M256.17,15.08c-9.29-.34-18.22.93-26.29,2.3-28.61,4.85-58,22-85.35,38.92A21.24,21.24,0,0,1,134,59.61c-7.34.17-13.45-2.64-20.55-9.46-4.4-4.25-8.07-9.79-11.61-15.07C98.19,29.54,94.4,23.92,90,19.92A28.11,28.11,0,0,0,77.4,13c-8.92-2-16.52-.18-22.52,5.37-7.58,7-9.17,9.28-14.3,16.52l-1.1,1.62a67.94,67.94,0,0,0-4.28,7.08,61.06,61.06,0,0,1-6.12,9.53,19.49,19.49,0,0,1-3.79,3.58C16.73,62.6,7.93,61,1.57,52.72L.49,51.19v.25c.37.51.73,1,1,1.45,6.36,8.34,15.28,10,23.84,4.09a17,17,0,0,0,3.79-3.58,71.45,71.45,0,0,0,6.12-9.56c1.46-2.55,2.81-4.94,4.28-7.07l1.1-1.61c5.13-7.22,6.72-9.44,14.26-16.42,6-5.54,13.45-7.32,22.38-5.28a27.94,27.94,0,0,1,12.62,6.9c4.41,4,8.2,9.62,11.86,15.16,3.55,5.28,7.22,10.81,11.62,15.07,7.09,6.81,13.21,9.71,20.54,9.54a21.19,21.19,0,0,0,10.65-3.29c27.39-16.9,56.74-34.1,85.33-38.87,8.07-1.36,17-2.64,26.29-2.3,2.93.09,6,.26,8.92.34v-.34A78.28,78.28,0,0,0,256.17,15.08Z"  fill="none" stroke="#000" stroke-miterlimit="10" stroke-width="0.25"/>
        <path class="line3" d="M256.66,15.61c-9.3-.43-18.22.68-26.41,1.87C200.41,22,169.11,40.22,144.78,56a21.53,21.53,0,0,1-10.52,3.58c-7.46.43-13.33-2.3-20.54-9-4.53-4.3-8.19-9.94-11.86-15.29S94.52,24.19,90.12,20.19a28.32,28.32,0,0,0-12.6-7.07C68.6,10.9,61,12.61,55,18.06c-7.71,6.9-9.3,9.2-14.56,16.6l-1,1.45c-1.47,2.13-2.82,4.52-4.28,7.07a67,67,0,0,1-6.12,9.66,19.49,19.49,0,0,1-3.79,3.58C16.74,62.34,8,60.84,1.59,52.61c-.37-.51-.85-1.1-1.22-1.7v.26a13.46,13.46,0,0,0,1.1,1.61c6.41,8.26,15.28,9.8,23.84,3.75A17,17,0,0,0,29.1,53a63.09,63.09,0,0,0,6.12-9.7c1.46-2.56,2.81-4.94,4.28-7.07l1-1.45c5.26-7.41,6.85-9.71,14.56-16.52,6-5.37,13.45-7.07,22.37-4.94A29.4,29.4,0,0,1,90,20.34c4.4,4,8.07,9.54,11.73,15s7.34,11,11.87,15.24c7.21,6.81,13.2,9.45,20.66,9.11a21.17,21.17,0,0,0,10.45-3.57c24.45-15.66,55.63-33.89,85.47-38.4,8.19-1.2,17.11-2.39,26.29-1.88,2.81.17,5.62.26,8.43.43v-.34C262.28,15.93,259.47,15.76,256.66,15.61Z"  fill="none" stroke="#000" stroke-miterlimit="10" stroke-width="0.25"/>
        <path class="line3" d="M240.39,21.61c-18.46-4.51-35-4.76-49.15-.93C175.47,24.94,162,34.39,151.13,48.44a50.56,50.56,0,0,1-9.66,10.05c-5.62,4.17-12,7.15-22,.94-6.48-4-11.12-11.16-15.89-18.57a122.08,122.08,0,0,0-8.44-12c-4.16-4.94-8.07-8.6-12.26-11.15-8.56-5.45-16.26-6.9-23.59-4.69-9.66,2.9-12.11,7.07-17,16.87C41.19,32,40.21,34.4,39.11,37a86.94,86.94,0,0,1-6.23,12.89,26.41,26.41,0,0,1-3.66,4.69c-8,8.27-17.13,9.37-24.5,3.24a24.82,24.82,0,0,1-4.4-5.19v.26A26.7,26.7,0,0,0,4.6,58c7.46,6.13,16.63,5,24.58-3.24a29.6,29.6,0,0,0,3.7-4.72,87.66,87.66,0,0,0,6.24-12.86c1.1-2.47,2.08-4.86,3.18-7.07,4.89-9.79,7.34-13.88,16.87-16.78,7.34-2.21,15-.76,23.48,4.69A56.88,56.88,0,0,1,94.88,29.21a123.19,123.19,0,0,1,8.43,12c4.77,7.5,9.54,14.65,16,18.65,10.15,6.22,16.63,3.32,22.26-.93a58.58,58.58,0,0,0,9.78-10c20.66-26.57,49.76-36.37,89-26.66a246.75,246.75,0,0,1,24.7,7.24v-.43A230.31,230.31,0,0,0,240.39,21.61Z"  fill="none" stroke="#000" stroke-miterlimit="10" stroke-width="0.25"/>
        <path class="line3" d="M240.74,21.84c-39.62-10.38-68.84-.68-89.38,26.32a53,53,0,0,1-9.66,10.3c-5.63,4.35-12,7.5-22.13,1.37-6.48-4-11.25-11.24-16-18.74-2.69-4.13-5.38-8.25-8.32-12A54.42,54.42,0,0,0,83,17.84c-8.56-5.53-16.29-7.19-23.6-5.11-9.78,2.73-12.11,6.9-17,16.78-1.1,2.13-2.08,4.51-3.06,7a88.14,88.14,0,0,1-6.23,13,26.92,26.92,0,0,1-3.67,4.77c-8,8.3-17.12,9.49-24.59,3.56A25.44,25.44,0,0,1,.37,52.53v.31a26,26,0,0,0,4.37,5.21c7.46,6,16.63,4.85,24.58-3.58A27,27,0,0,0,33,49.66a91.37,91.37,0,0,0,6.35-13c1.1-2.47,2.08-4.85,3.06-7,4.89-9.88,7.34-14,17-16.78,7.33-2,15-.42,23.6,5.11a54.49,54.49,0,0,1,12.1,11.33,139.09,139.09,0,0,1,8.32,11.84C108.34,48.74,113,56,119.59,60c10.15,6.21,16.63,3.06,22.25-1.37a53.2,53.2,0,0,0,9.66-10.39c20.38-27,49.64-36.58,89.14-26.27,6.72,1.78,15.41,4.17,24.33,7.4v-.42C256.17,26,247.49,23.61,240.74,21.84Z"  fill="none" stroke="#000" stroke-miterlimit="10" stroke-width="0.25"/>
        <path class="line3" d="M241.25,22c-40-11.08-69.21-1.54-89.5,25.8-3.55,4.68-6.61,8.17-9.66,10.56-5.51,4.51-12,7.83-22.26,1.7-6.6-3.92-11.37-11.24-16.26-18.82a127.15,127.15,0,0,0-8.19-11.75A56.1,56.1,0,0,0,83.15,18c-8.41-5.7-16.27-7.36-23.72-5.53C49.65,15,47.2,19.16,42.31,29.21c-1.1,2.13-2.08,4.52-3.06,7A91.85,91.85,0,0,1,33,49.31a26.92,26.92,0,0,1-3.67,4.77c-7.83,8.43-17,9.71-24.61,3.83A26.13,26.13,0,0,1,.09,52.55v.29a26.18,26.18,0,0,0,4.65,5.37c7.46,5.87,16.75,4.6,24.7-3.83a31,31,0,0,0,3.67-4.86,98.28,98.28,0,0,0,6.36-13.2,74.41,74.41,0,0,1,3-7c4.89-10,7.22-14.14,17-16.69,7.46-2,15.16-.17,23.6,5.53A56.12,56.12,0,0,1,95.25,29.61a127.25,127.25,0,0,1,8.2,11.75c4.89,7.58,9.66,15,16.26,18.91,10.27,6.13,16.75,2.81,22.38-1.71A58.57,58.57,0,0,0,151.74,48C172,20.7,201.26,11.16,241.12,22.23c6.48,1.79,15,4.34,24,7.67v-.29C256.29,26.32,247.74,23.84,241.25,22Z"  fill="none" stroke="#000" stroke-miterlimit="10" stroke-width="0.25"/>
        <path class="line3" d="M241.62,22.23c-19-5.53-35.58-6.47-49.52-3-16,3.94-29.36,13.56-40.11,28.38a66,66,0,0,1-9.54,10.9c-5.5,4.68-12,8.17-22.25,2.13-6.73-3.92-11.46-11.33-16.39-19A120.53,120.53,0,0,0,95.74,30a57.72,57.72,0,0,0-12.1-11.67c-8.44-5.9-16.26-7.73-23.76-5.9C50,14.84,47.44,19.34,42.8,29.13c-1,2.13-2,4.51-3.06,7a84.86,84.86,0,0,1-6.36,13.29,30.56,30.56,0,0,1-3.64,4.83c-7.82,8.52-17,10-24.57,4.17A22,22,0,0,1,.4,53v.26a20.72,20.72,0,0,0,4.77,5.45c7.58,5.79,16.71,4.43,24.71-4.17a31.12,31.12,0,0,0,3.64-4.9,95.14,95.14,0,0,0,6.36-13.37c1-2.47,2-4.77,3.06-6.9,4.82-9.73,7.21-14.26,17.12-16.56,7.46-1.79,15.16.08,23.6,5.87a59.76,59.76,0,0,1,12.1,11.67A122.91,122.91,0,0,1,103.83,42c4.89,7.66,9.66,15.07,16.39,19.07,10.27,6,16.87,2.56,22.37-2.12A57.67,57.67,0,0,0,152.25,48c20.06-27.59,49.28-37,89.51-25.2,9.17,2.72,16.63,5.19,23.48,7.83v-.42A215.87,215.87,0,0,0,241.62,22.23Z"  fill="none" stroke="#000" stroke-miterlimit="10" stroke-width="0.25"/>
        <path class="line3" d="M242.11,22.4c-19.08-5.88-35.71-7-49.77-3.75-16,3.75-29.47,13.46-40.11,28.53a65.25,65.25,0,0,1-9.49,11.16c-5.51,4.85-12,8.52-22.38,2.55C113.6,57,108.74,49.61,103.81,41.82c-2.56-3.92-5.13-8-7.93-11.58A61.36,61.36,0,0,0,83.74,18.4c-8.44-6-16.26-8-23.72-6.3-10,2.21-12.47,6.74-17.24,16.74q-1.47,3.19-2.94,6.9a86.39,86.39,0,0,1-6.35,13.4A36,36,0,0,1,29.94,54c-7.83,8.6-17,10.13-24.58,4.42A21.9,21.9,0,0,1,.47,52.84v.26a20,20,0,0,0,4.91,5.51c7.58,5.71,16.88,4.26,24.7-4.42a27.67,27.67,0,0,0,3.66-5A96.53,96.53,0,0,0,40.1,35.65c1-2.47,2-4.77,2.93-6.9,4.71-9.88,7.23-14.39,17.13-16.61,7.58-1.62,15.29.34,23.72,6.3A61.4,61.4,0,0,1,96,30.32c2.81,3.58,5.38,7.58,8,11.5,5,7.75,9.78,15.24,16.63,19.16,10.39,6,16.87,2.3,22.49-2.56a65.47,65.47,0,0,0,9.54-11.15c19.88-27.93,49.09-37.22,89.58-24.66,8.8,2.73,16.26,5.28,23,8v-.43C258.37,27.68,250.88,25,242.11,22.4Z"  fill="none" stroke="#000" stroke-miterlimit="10" stroke-width="0.25"/>
        <path class="line3" d="M242.6,22.61c-19.2-6.22-36-7.58-49.89-4.43-16,3.62-29.47,13.43-40.11,28.75a64.34,64.34,0,0,1-9.54,11.41c-5.5,5-12,8.86-22.37,3-6.85-3.83-11.74-11.41-16.63-19.25a120,120,0,0,0-7.83-11.41,62.8,62.8,0,0,0-12.1-12c-8.39-6.16-16.25-8.29-23.85-6.75-10.15,2-12.59,6.55-17.24,16.6-1,2.13-1.95,4.43-2.93,6.9a85.77,85.77,0,0,1-6.37,13.63A42,42,0,0,1,30.19,54c-7.82,8.68-17,10.3-24.7,4.76a23.68,23.68,0,0,1-5-5.7v.25a23.16,23.16,0,0,0,5,5.63c7.71,5.62,16.88,4,24.7-4.77a31.76,31.76,0,0,0,3.69-4.94,85.27,85.27,0,0,0,6.36-13.71q1.51-3.71,2.94-6.91c4.65-10,7.22-14.56,17.25-16.52,7.58-1.54,15.4.59,23.72,6.72a62.8,62.8,0,0,1,12.1,12,120,120,0,0,1,7.83,11.41c5,7.84,9.9,15.42,16.75,19.34,10.39,5.87,17,2,22.5-3a66,66,0,0,0,9.55-11.41c20-28.7,48.54-37.55,89.87-24.18,8.56,2.81,15.89,5.45,22.62,8.17v-.42C258.37,27.94,251,25.3,242.6,22.61Z"  fill="none" stroke="#000" stroke-miterlimit="10" stroke-width="0.25"/>
        <path class="line3" d="M244.67,23.42C224.5,15.33,208,13,194.05,15.5c-16.26,3-29.71,13.12-40.23,29.81a88.78,88.78,0,0,1-9.29,12.77c-5.5,6-12,10.56-22.74,5.11-7.22-3.66-12.23-11.66-17.49-19.84A128.88,128.88,0,0,0,97,32.45,74.12,74.12,0,0,0,85,19.61c-8.42-6.9-16.09-9.62-24.09-8.77C50.37,12,47.56,17.23,43.28,27.19c-.86,2-1.71,4.26-2.57,6.64A101.34,101.34,0,0,1,34.35,48.4a43.88,43.88,0,0,1-3.55,5.21C23.23,62.72,13.94,64.94,6,59.84A23.62,23.62,0,0,1,.25,53.7V54a23.09,23.09,0,0,0,5.62,6c8,5.11,17.24,3,24.94-6.22a39,39,0,0,0,3.55-5.19A119.32,119.32,0,0,0,40.88,34c.86-2.38,1.71-4.6,2.57-6.64,4.28-9.88,7-15.24,17.48-16.27,8-.85,15.53,1.88,24,8.78A73.6,73.6,0,0,1,96.88,32.71a112.5,112.5,0,0,1,7.17,10.9c5.14,8.23,10.16,16.23,17.49,19.92,10.76,5.54,17.37.86,22.87-5.11,2.81-3,5.62-7,9.41-12.77,19.32-30.57,47.92-38.75,90.61-21.72,7.34,2.91,14.06,5.91,20.45,8.91v-.43A214,214,0,0,0,244.67,23.42Z"  fill="none" stroke="#000" stroke-miterlimit="10" stroke-width="0.25"/>
        <path class="line3" d="M245.16,23.61c-20.29-8.43-36.8-11.07-50.74-8.6-16.39,2.9-29.71,13.12-40.23,30a90.11,90.11,0,0,1-9.29,13c-5.5,6.13-12,10.9-22.75,5.53-7.33-3.66-12.35-11.66-17.6-20-2.33-3.7-4.67-7.41-7.22-10.7a75.88,75.88,0,0,0-12-13c-8.44-7-16-9.88-24.09-9.2C50.6,11.55,47.88,16.92,43.63,27c-.85,2-1.71,4.26-2.56,6.56a92.89,92.89,0,0,1-6.48,14.73A38.48,38.48,0,0,1,31,53.45C23.46,62.65,14.17,65,6.22,59.92A21.79,21.79,0,0,1,.35,53.84v.26A23.46,23.46,0,0,0,6.1,60.23C14,65.23,23.46,63,31,53.67a39.94,39.94,0,0,0,3.55-5.28,121.53,121.53,0,0,0,6.5-14.73c.85-2.3,1.71-4.52,2.56-6.56,4.28-10,7-15.33,17.61-16.27C69.21,10.15,76.91,13,85.35,20a75.88,75.88,0,0,1,12,13c2.57,3.41,4.89,7.07,7.22,10.73,5.25,8.35,10.27,16.35,17.6,20.1,10.89,5.45,17.37.6,23-5.54a91.19,91.19,0,0,0,9.3-13.11c19.19-30.91,47.8-39,90.72-21.21,7.1,3,13.7,5.88,20.06,9v-.43C258.88,29.47,252.26,26.49,245.16,23.61Z"  fill="none" stroke="#000" stroke-miterlimit="10" stroke-width="0.25"/>
      </g>
    </g>
  </g>
</svg>
